<svg version="1.1" id="Layer_1" xmlns="http://www.w3.org/2000/svg" x="0" y="0" viewBox="0 0 640 480" xml:space="preserve"><style type="text/css">.st0{fill:#fff}.st1{fill:#ebebeb}</style><g transform="matrix(.6 0 0 .6 -40.65 0)"><path id="a" class="st0" d="M663.9 587c-2.7 3.1-6.2 6-9.5 8.6-21.2-21.9-46.2-46.3-69.9-46.3-14.7 0-25.3 11.2-37.6 19.1-17.1 11-40.6 17.1-60.8 9.1-10.8-4.1-21.3-10.2-29.2-20 15.8 10.9 39.6 12.4 57.5 5 19.8-8.2 39.9-19.1 62.4-19.1 33.3 0 64.9 22.5 87.1 43.6zm-245.6-69c22 25 57.9 17 87.2 23.2 4.1.9 7.9 2.2 12.3 1.6-3.5-2.2-8.1-2.5-12.1-4-22.8-8.6-26.3-33-38.8-49.7 15.9 10.6 29.1 25.1 44 38.7 10.4 9.5 23.3 13.5 36.7 16.3-3.2 1.2-7.4.9-10.9 1.8-24.1 6-50.7 15.4-76.3 6.9-16.6-5.5-33.7-18.4-42.1-34.8zm-35.2-57.9c13.7 31.1 48.2 33.5 71.1 52.6 4.4 3.6 8.7 7 13.5 9.2l.2-.2c-5.3-4.8-11-10.5-15.1-16.4-13.1-19-8.7-45-18.8-65.2 9.2 11 17.8 22.3 23.1 34.9 8.5 20.2 11.4 43.3 30.5 58.7-20.6-6.8-44.5-5.5-63-17.6-19.7-13-37.8-33.2-41.5-56zm-14.7-62.9c2 27.4 31.1 42 45 64.5 3 4.8 6 9.8 10.3 13.6-.7-2.9-3.1-5.5-4.4-8.4-4.5-9.7-6.5-20.8-5.4-32.3 1.4-14 7.2-27 4.9-41.7 12 25.8 8.1 58.2 15 86.1 1.5 6.2 5.3 11.6 7.6 17.5-11.8-9-27.2-16.9-40.1-27.1-12.5-9.8-23.3-21.4-29-36.4-3.9-10.7-4.9-23.6-3.9-35.8zm.8-50.4c1.4-6.1 2.5-12.4 5.1-18-5 25.8 12.1 44.5 18 66.8 2.2 8.4 3 17.4 6.4 25.2.3.2.6-.2.8-.4-8.5-23.8 3.9-45.7 16-64.5 3.2-4.9 4.7-10.7 6.2-16.5 1.3 10.8-1 23.2-3 34.3-2.6 14.3-7.5 27.7-11.3 41.5-2.6 8.6-1.9 18.3-.6 27.4l-1.2-1c-9-16.6-26.8-29.6-32.2-47.8-4.2-14.5-7.2-31.2-4.2-47zm9.5-27.8c0-19.5 7.6-35.5 19-50 .3-.2.6-.5 1-.4-12.6 19.1-1.1 43.2-2.7 64.9l-1.7 22.2c.2.2.2.8.8.6.7-2.5 1-5.1 1.4-7.7 3-17.9 18.8-30.4 32.1-43.1 3.1-2.9 5.4-6.4 7-10.3-1.1 8.9-3.6 18.1-7.6 26.2-10.3 20.8-30.1 37.6-33.7 61.3-1.7-22.7-15.6-39.5-15.6-63.7zm33.1-65.9c6.3-7 13.4-12.5 21.8-14.6-16.4 11.3-15.5 31.4-20.5 48.2-1.8 6.1-4.5 11.9-6 18.3l.4.3c2.7-7.2 7.4-14.1 13.5-19.8 11.5-10.9 28.8-17.4 34.5-33.3-.3 22.1-19.1 38.9-36.3 51.8-7.7 5.8-14.3 13.6-18.3 21.8.7-6.1 1-11.2.4-17.1-1.6-19.3-2.7-40.9 10.5-55.6zm66.4-37.1c-12.1 10.7-20.2 24.4-29.6 36.7-7.8 10.3-18.4 16.6-27.6 25.2 4.9-10.3 5.9-22 12.1-31.9 10.8-17 28.6-23.5 45.1-30z"/><g transform="matrix(-1 0 0 1 1202.2 0)"><path id="a_1_" class="st0" d="M538.3 587c2.7 3.1 6.2 6 9.5 8.6 21.2-21.9 46.2-46.3 69.9-46.3 14.7 0 25.3 11.2 37.6 19.1 17.1 11 40.6 17.1 60.8 9.1 10.8-4.1 21.3-10.2 29.2-20-15.8 10.9-39.6 12.4-57.5 5-19.8-8.2-39.9-19.1-62.4-19.1-33.3 0-64.9 22.5-87.1 43.6zm245.6-69c-22 25-57.9 17-87.2 23.2-4.1.9-7.9 2.2-12.3 1.6 3.5-2.2 8.1-2.5 12.2-4 22.8-8.6 26.3-33 38.8-49.7-15.9 10.6-29.1 25.1-44 38.7-10.4 9.5-23.3 13.5-36.7 16.3 3.2 1.2 7.4.9 10.9 1.8 24.1 6 50.7 15.4 76.3 6.9 16.5-5.5 33.6-18.4 42-34.8zm35.2-57.9c-13.7 31.1-48.2 33.5-71.1 52.6-4.4 3.6-8.7 7-13.5 9.2l-.2-.2c5.3-4.8 11-10.5 15.1-16.4 13.1-19 8.7-45 18.8-65.2-9.2 11-17.8 22.3-23.1 34.9-8.5 20.2-11.4 43.3-30.5 58.7 20.6-6.8 44.5-5.5 63-17.6 19.7-13 37.8-33.2 41.5-56zm14.7-62.9c-2 27.4-31.1 42-45 64.5-3 4.8-6 9.8-10.3 13.6.7-2.9 3.1-5.5 4.4-8.4 4.5-9.7 6.5-20.8 5.4-32.3-1.4-14-7.2-27-4.9-41.7-12 25.8-8.1 58.2-15 86.1-1.5 6.2-5.3 11.6-7.6 17.5 11.8-9 27.2-16.9 40.1-27.1 12.5-9.8 23.3-21.4 29-36.4 3.9-10.7 4.9-23.6 3.9-35.8zm-.8-50.4c-1.4-6.1-2.5-12.4-5.1-18 5 25.8-12.1 44.5-18 66.8-2.2 8.4-3 17.4-6.4 25.2-.3.2-.6-.2-.8-.4 8.5-23.8-3.9-45.7-16-64.5-3.2-4.9-4.7-10.7-6.2-16.5-1.3 10.8 1 23.2 3 34.3 2.6 14.3 7.5 27.7 11.3 41.5 2.6 8.6 1.9 18.3.6 27.4l1.2-1c9-16.6 26.8-29.6 32.2-47.8 4.2-14.5 7.2-31.2 4.2-47zm-9.5-27.8c0-19.5-7.6-35.5-19-50-.3-.2-.6-.5-1-.4 12.6 19.1 1.1 43.2 2.7 64.9l1.7 22.2c-.2.2-.2.8-.8.6-.7-2.5-1-5.1-1.4-7.7-3-17.9-18.8-30.4-32.1-43.1-3.1-2.9-5.4-6.4-7-10.3 1.1 8.9 3.6 18.1 7.6 26.2 10.3 20.8 30.1 37.6 33.7 61.3 1.7-22.7 15.6-39.5 15.6-63.7zm-33.1-65.9c-6.3-7-13.4-12.5-21.8-14.6 16.4 11.3 15.5 31.4 20.5 48.2 1.8 6.1 4.5 11.9 6 18.3l-.4.3c-2.7-7.2-7.4-14.1-13.5-19.8-11.5-10.9-28.8-17.4-34.5-33.3.3 22.1 19.1 38.9 36.3 51.8 7.7 5.8 14.3 13.6 18.3 21.8-.7-6.1-1-11.2-.4-17.1 1.6-19.3 2.7-40.9-10.5-55.6zM724 216c12.1 10.7 20.2 24.4 29.6 36.7 7.8 10.3 18.4 16.6 27.6 25.2-4.9-10.3-5.9-22-12.1-31.9-10.8-17-28.6-23.5-45.1-30z"/></g></g><path class="st0" d="M409 262l-2.2-1.2c-4.5 9.4-10.6 17.9-17.8 25.4l-12.6-12.6c6.2-6.4 11.1-13.6 14.8-21.3l-2.1-1.2c-3.6 7.7-8.5 14.7-14.4 20.8l-11.4-11.4c4.8-5 8.7-10.8 11.6-17.2l-2.1-1.2c-2.7 6.1-6.5 11.8-11.1 16.6l-12.6-12.6c3.5-3.7 6.2-7.9 8-12.6l-2.1-1.2c-1.7 4.5-4.3 8.6-7.6 12.1L336 233c3.2-3.6 5.2-8.2 5.4-13.1h16.2c-.1 4.3-1 8.5-2.5 12.4l2.1 1.2c1.7-4.3 2.7-8.9 2.8-13.6h17.8c-.2 7.6-1.8 15.2-4.9 22.2l2.1 1.2c3.3-7.3 5-15.3 5.2-23.3h16.1c-.2 10.7-2.6 21.3-7.2 31.1l2.1 1.2c4.7-10 7.2-20.9 7.4-32.2h17.8c-.2 14.1-3.4 28-9.6 40.8l2.2 1.1c6.4-13.3 9.9-27.9 9.9-43.1 0-12.9-2.5-25.5-7.2-37.1l-2.2.9c4.4 11 6.8 22.8 7 34.9h-17.8c-.1-9.6-2-19-5.5-27.9l-2.2.9c3.4 8.6 5.2 17.7 5.4 27h-16.1c-.1-7-1.5-14-4-20.6l-2.2.9c2.4 6.3 3.7 12.9 3.9 19.6h-17.8c-.1-4.3-.9-8.6-2.4-12.6l-2.2.9c1.4 3.7 2.1 7.7 2.2 11.6h-16.2c-.3-4.8-2.2-9.5-5.4-13.1l11.4-11.4c3.5 3.7 6.2 8.1 7.9 12.8l2.2-.9c-1.9-5.1-4.7-9.7-8.4-13.6l12.6-12.6c5.4 5.6 9.5 12.1 12.2 19.2l2.2-.9c-2.9-7.4-7.2-14.2-12.7-19.9l11.4-11.4c7.1 7.3 12.5 15.8 16.1 24.9l2.2-.9c-3.8-9.5-9.4-18.2-16.6-25.7l12.6-12.6c8.9 9.1 15.8 19.7 20.4 31.2l2.2-.9c-4.9-12.1-12.2-23.3-21.8-32.8-9.6-9.6-20.8-16.9-33-21.8l-.9 2.2a94.34 94.34 0 0 1 31.3 20.5l-12.6 12.6c-7.4-7.2-15.9-12.7-25.2-16.5l-.9 2.2c9 3.6 17.2 9 24.4 15.9l-11.4 11.4c-5.5-5.3-11.9-9.4-18.9-12.3l-.9 2.2c6.7 2.8 12.8 6.8 18.1 11.8l-12.6 12.6c-3.5-3.3-7.6-5.9-12-7.8l-.9 2.2c4.1 1.7 7.9 4.2 11.2 7.3L334.3 203c-3.6-3.2-8.2-5.2-13.1-5.4v-16.2c4.6.1 9.1 1.1 13.3 2.9l.9-2.2c-4.5-1.9-9.3-2.9-14.2-3v-17.8c7.1.1 14.1 1.6 20.7 4.3l.9-2.2c-6.9-2.8-14.2-4.3-21.6-4.4v-16.2c9.6.1 18.9 2.1 27.5 5.6l.9-2.2c-8.9-3.6-18.5-5.6-28.4-5.7v-17.8c12.1.1 23.9 2.5 34.9 6.9l.9-2.2c-11.6-4.7-24.1-7.1-36.9-7.1-15.4 0-30.5 3.6-44.2 10.5l1.1 2.1c12.9-6.5 27.1-10 42-10.2v17.8c-11.7.2-23.2 3-33.7 8.2l1.1 2.1c10-5 21.1-7.7 32.6-7.9V159c-8.7.2-17.3 2.2-25.1 6.1l1.1 2.1c7.5-3.6 15.7-5.6 24-5.8V179c-5.4.2-10.8 1.4-15.7 3.7l1.1 2.1c4.6-2.1 9.6-3.3 14.6-3.5v16.2c-2.4.1-4.8.7-7.1 1.6l1.1 2.1c2.3-.9 4.7-1.4 7.2-1.4 5.1 0 9.9 2 13.5 5.6 3.6 3.6 5.6 8.4 5.6 13.4 0 10.5-8.5 19-19 19-5 0-9.9-2-13.5-5.6-3.6-3.6-5.6-8.4-5.6-13.4 0-5.1 2-9.9 5.6-13.4 1.8-1.8 3.9-3.2 6.2-4.2l-1.1-2.1c-2.2.9-4.2 2.2-5.9 3.8l-11.4-11.4c2.9-2.7 6.2-5 9.9-6.7l-1.1-2.1c-3.8 1.8-7.4 4.2-10.5 7.1L280 177.2c4.4-4.2 9.4-7.7 14.8-10.3l-1.1-2.1c-5.6 2.8-10.8 6.4-15.4 10.7l-11.4-11.4c5.7-5.5 12.2-10.1 19.3-13.6l-1.1-2.1c-7.3 3.6-14 8.4-19.9 14.1l-12.6-12.6c7.1-7 15.3-12.8 24.2-17.3l-1.1-2.1a99.46 99.46 0 0 0-44.5 44.8l2.1 1.1c4.5-9.2 10.4-17.6 17.6-24.9l12.6 12.6c-5.9 6.1-10.8 13.1-14.5 20.7l2.1 1.1c3.6-7.4 8.3-14.3 14.1-20.2l11.4 11.4c-4.6 4.8-8.4 10.4-11.2 16.5l2.1 1.1c2.7-5.9 6.4-11.3 10.8-15.9l12.6 12.6c-3.3 3.4-5.9 7.4-7.7 11.8l2.1 1.1c1.7-4.2 4.2-8 7.3-11.3l11.4 11.4c-3.2 3.6-5.1 8.2-5.4 13.1h-16.2c.1-4.5 1.1-9 2.8-13.2l-2.1-1.1c-1.9 4.6-3 9.4-3.1 14.4h-17.8c.1-7.9 1.9-15.7 5.2-22.9l-2.1-1.1c-3.5 7.5-5.4 15.7-5.5 24h-16.1c.2-11.1 2.7-21.9 7.4-31.7l-2.1-1.1c-4.9 10.2-7.6 21.4-7.7 32.8h-17.8c.2-14.6 3.6-28.6 9.8-41.3l-2.1-1.1c-6.7 13.6-10.2 28.5-10.2 43.6 0 9.4 1.3 18.8 4 27.9l2.3-.6c-2.5-8.5-3.8-17.3-3.9-26.1h17.8c.1 7.4 1.2 14.7 3.4 21.7l2.3-.6c-2.1-6.9-3.2-14-3.3-21.1h16.1c.1 5.8 1.1 11.6 2.9 17.2l2.3-.6c-1.7-5.4-2.7-11-2.8-16.6h17.8c.1 4.2.9 8.3 2.3 12.2l2.3-.6c-1.4-3.7-2.1-7.7-2.2-11.7h16.2c.3 4.8 2.2 9.5 5.4 13.1l-11.4 11.4c-3.5-3.7-6.2-8.1-7.9-12.8l-2.3.6c1.9 5.2 4.8 9.9 8.5 13.9l-12.6 12.6c-6.1-6.3-10.6-13.9-13.3-22.2l-2.3.6c2.8 8.6 7.5 16.6 13.9 23.3L265.2 272c-8.5-8.8-14.7-19.3-18.2-30.7l-2.3.6c3.6 11.8 10 22.7 18.8 31.8l-12.6 12.6c-11.2-11.4-19.1-25.2-23.5-40.1l-2.3.6c4.6 15.7 13.1 30.1 25 42 8.1 8.1 17.3 14.6 27.3 19.3l1.2-2.1c-9.5-4.5-18.2-10.6-25.9-18.1l12.6-12.6c6.4 6.3 13.9 11.4 22.1 15.1l1.2-2.1c-8-3.6-15.3-8.6-21.6-14.7l11.4-11.4c5.3 5.1 11.4 9.1 18.1 12l1.2-2.1c-6.5-2.7-12.5-6.7-17.6-11.6l12.6-12.6c4 3.8 8.7 6.7 13.9 8.5l1.2-2.1c-5-1.7-9.5-4.5-13.4-8.1l11.4-11.4c3.6 3.2 8.2 5.2 13.1 5.4v16.2c-3.8-.1-7.5-.8-11.1-2l-1.2 2.1c4 1.4 8.1 2.2 12.3 2.3v17.8c-7.3-.1-14.4-1.6-21.1-4.5l-1.2 2.1c7.1 3 14.6 4.6 22.3 4.8v16.1c-10.6-.2-20.9-2.5-30.3-6.8l-1.2 2.1c9.8 4.5 20.4 6.9 31.5 7.1v17.8c-14.2-.2-27.8-3.4-40.3-9.3l-1.2 2.1c13.1 6.3 27.6 9.6 42.6 9.6 15.7 0 30.9-3.7 44.6-10.6l-1.1-2.2c-13.1 6.6-27.6 10.2-42.2 10.4v-17.8c12-.2 23.6-3.1 34.1-8.3l-1.1-2.2c-10.2 5.2-21.5 7.9-33 8.1V279c9-.2 17.7-2.3 25.6-6.3l-1.1-2.1c-7.6 3.8-16 5.9-24.5 6v-17.8c5.7-.2 11.2-1.5 16.3-4l-1.1-2.1c-4.8 2.3-9.9 3.6-15.2 3.8v-16.2c4.8-.3 9.5-2.2 13.1-5.4l11.4 11.4c-2.7 2.6-5.9 4.7-9.3 6.4l1.1 2.1c3.6-1.8 6.9-4.1 9.9-6.8l12.6 12.6c-4.2 4.1-9 7.4-14.3 10.1l1.1 2.1c5.5-2.7 10.5-6.3 14.9-10.5l11.4 11.4c-5.6 5.4-11.9 9.9-18.9 13.4l1.1 2.2c7.2-3.6 13.7-8.3 19.5-13.9l12.6 12.6c-7.1 6.9-15.1 12.6-23.9 17.1l1.1 2.2c9.4-4.7 17.9-10.9 25.4-18.4 7.6-7.9 14.1-16.9 18.9-26.9z"/><path class="st0" d="M325.7 196h-.6v.7h.6v-.7zm-1.5-1h.8v.6h-.8v-.6zm-1.4-.2l.7.1.1-.6-.7-.1-.1.6zm-.6-.2l-.7-.1.1-.6.7.1-.1.6zm-5.8-.8h.8v.6h-.8v-.6zm-1.7 1.2l.7.1.1-.6-.7-.1-.1.6zm0 1l-.8-.2.1-.6.8.2-.1.6zm-1.4.7l-.1-.6.6-.1.1.6-.6.1zm-78.6 61.6v-.5h-.5v1h.8v1.3h.6l-.1-1.5-.8-.3zm7.5 9l-1.1-1-.8-1.1-.4-.9-.7-1.8 1.5.7.5 1.4.7.5.7 1.5-.4.7zm20.7 27.1l-.1-.9-.8-1.2 1.2.2 1.3 1.1.5 1.3-.7.4-.4-.6-1-.3zm54-91.9h-1.1l-.2-2.2.6-.4v-1.1h-3.5l-.1-1.1.5-.3-.8-.3-.6.8-.2.9-1 .2v.5h-.7v1.3l-2.8 2.3-5.6-.2c-.4.9-1.4-.1-1.4-.1-.2-.6-1.6 0-1.6 0 0 1.1-1.9-.5-1.9-.5l-3.5-2.5c-2-1.8-5 .5-5.1 1 .1 1.4-2.3.3-2.3.3s-2-.6-2.3.2c-.3.8-1.6.6-1.6.6l-.2.4-1 .2-.2.6-1.2.2 3-.1c.8-.1-.3 1.7-.8 1.6l-1.3.2-.5.5h-1.3l-.6.8-1.9-.1s-1.1.9-1 1.2c.1.3-.2 1.2-.5 1.2s-.9.9-.7 1.2-.6 1.3-.6 1.3l-.2 1-.6.2v2.7l-1.2.8v1.2l-1.8 1.9.2 1.6-1.5 1.6.2 1.6-.9.3-.2.7-.4 2.1 1 .1c.5-.2.4 1.3 0 1.5-.4.2-1.5.6-.9 1s-1.6.3-1.6-.3-1.2-1.1-1.5-.9c-.3.2-.8-.9-.8-.9-1.1-1.1-4.5.1-4.5.1l-.5 1.6c-1.1.2-1.8 2-1.8 2-.9.3-1.6 1.4-1.3 1.7.3.3-.5.4-.5.4v2.2l-.5.7.1 2.4c.6 0 .5 1.1.5 1.1-1 .1-.8 1.4-.8 1.4l-2.1.7-.4.6-2.6-.1-.7.7-.7-.7h-5l-.2-.5-1-.2-.1-1.1-1.5.1-.3.6-1.6.1c.1 1-1.6 2.5-1.8 2.1-.2-.4-1.3-1.5-.8-1.7.5-.2 1.8-.4 1.8-.4v-.7l-3.7-.1-.4.6-1.5.1v1.6l-.7.2c-.5.3.1 1.4.1 1.4.7.7-.1 1.8-.1 1.8-.6.6.5 1.7.5 1.7.8.2-.5.8-.5.8.2 1 .8 1.3.8 1.3-.6 1 .4 1.5.4 1.5l.1 1.7.7.4v1.1l.4.7h1.6l-.1-2.5c-1.4-1.6 1.2-2 1.3-1.4.1.6 1.2.9 1.2.9.2 1.5 1.9 2.4 2.4.9s.9-.6 1.2.1c.3.7 2.2 2.4 2.2 2.4h1.5l.2 1.4c1.7-.1 2.2.1 2.9 2.4.7 2.3 2.6 2.9 2.6 2.9l1.4-.1c0-1.2 1.4.2 1.4.8 0 .6 2.7 2.9 2.7 2.9l2.7.6 2.5 2 1.9-.2h.8c.5-1.7 2.9.1 3.1.7.2.6 1.8 1.6 2 1.1.2-.5 1.3-.2 1.5 1.3.2 1.5.9 1.2.9 1.2l5.7-.1 2-1.7 5.1-.1c2.6-.1 1-3.6.5-3.6-.9-.7.3-3.6.3-3.6l-7.3-6.8c-1.7 0-.2-2.4-.2-2.4 1.3-.8-.3-2.1-.3-2.1.2-1.2-.7-2.6-.7-2.6-1.8-1.2-1.3-3.5-1.3-3.5V245c-1.5-1.4.6-1.6.6-1.6.7-1.2-.5-2.1-.5-2.1l-.1-1.3-1.6-.2-.2-4.8-3.6-5.2c-.7-.2-.2-1.4-.2-1.4.9-.5-.2-1.7-.2-1.7l-.1-2.2 2.1-.2.5-.8h1l-.1-2.6c.5-1.3 1.7-.6 1.7-.6l1.4.1.8-1.5.2-1.2-1.1-.1c-1.2-.7-.6-3.3-.6-3.3 1.9-2.8 4.1-1.2 4.1-1.2l1.4-.1c2.1 1.4.2 4 .2 4-.4.6-.2 2.5-.2 2.5l.5 3.2-1.3 1.1c-1.1.6-1.1 2 .1 2.3.8.1.5 2-.7.7-1.8 0 1 1.6.2 1.2 1.8.9 1.4-.8 1.4-.8l2.4-1.9c.9-.7 2.5 1.5 2.5 1.8s4 .1 4 .1c1.1.7 1.5 2.5 1.5 2.5 1.1-1.4 3.4-.1 1.7.7 1.6 1 1.6 1.9 1.6 1.9 1.3-.4 1.3.6 1.3.9 0 .3.4-1.5.4-1.5-1.5-1.1 2-1.5 1 .5l-.6.9 1 .8.1 2.3c2.2-.2 1.6-2.9 1.6-2.9l1-.2c0-.9.7-.4.7-.4-.7-3.4 1.6-4 1.6-4 1.3-.3 1.4-3 1.4-3-.9-.4-.4-1.8.6-.6 1 1.2-.6-2.4-.6-2.4l-.8-.7-1.1-.1-.1-1.1h-1.8l-.3 1.4-.7.2-.2-.4-.3 1.1H296l-.1-1.2 1.1-.3.4-.6.3-1.6h1.3l1.7-.5c.1-1.7 1-1.3 1-1.3l.6.5.9.7.1.6-.6.3-.1.8.3 1.1h.8c.3-1.6 2.4-1.6 3-.6l.6-1.4c-1.4-.7 0-1.8.4-1.3s1.3-1.3 1.3-1.3.7.9 0-.3.5-1.8.5-1.8c-.2-1.2 1.3-1 1.3-1l.1-1.6-1.4-.1c-.3 1.4-1.5.2-.9-.1.6-.3 1.2-.9 1.2-.9v-1l.6-.2.1-1h1.5l1.3-.6.3-.5 1.4-.1 2-1.8-.2-.8c-1.2 0 0-.9 0-.9l.1-1.8z"/><path class="st0" d="M276.7 222.6l-1.8-.2.1.7h.5c.8 1.4.1 4.9.1 4.9s-1.2.1-1.4-.5c-.2-.6-.7 1.3-.3 1.6.4.3 1.8 0 1.9 1.1.1 1.1.9-.7.9-.7v-6.9z"/><path class="st0" d="M276.7 231.2l.6-.1.1-.7-1.5 1-1-.6v2.4l1.6 2.1.6-1.4.2-.9-.7-.3.1-1.5zm.8 6.3v-1l-.7.1-.1.8.8.1zm-.9 4.9v-.7l-.8.1v.7l.8-.1zm1.2-3.1c.2 0 .4-.2.4-.4s-.2-.4-.4-.4-.4.2-.4.4.2.4.4.4z"/><ellipse class="st0" cx="278.5" cy="241" rx=".4" ry=".4"/><ellipse class="st0" cx="278.5" cy="229.4" rx=".4" ry=".4"/><path class="st0" d="M312.4 214.5l-1.1-.1-.2.5h-.5l-.1.8h.6l.1.6-.4.4-.2.5-.8.2-1.8 1.7-.1.8-.5.7-.6 1.5-2.1.1-.4 1.8.3 1.5 1.8.7.2-1 .6-.3.1-1 .4-.7.6-.7.2-.8 1-.6 1.2-.2.5-.6.2-1.2.1-.9.4-.6 1.2-.5v-1.9h-.6l-.1-.7zm2.8 6.9V220l-.2-1.3-1.5-.7-1.1 1-.2 1.4v.9l-1 .2-.2 2.7-.8.3.1 1-1.1.3-1.1.3-.2 1.3-.8.5-.4 1.2-.5 2.9s.9 1.7 1.4.9c.5-.8 1.3-.9 1.3-.9l.3-.7 2.7.1c.2-1.1 1.5-.7 1.5-.2s1 .1 1 .1l.7-1.1h1.1l.1-1.2.5-.3v-1.8c1.6-.5 1.4-2 1.4-2l.4-.5-.2-.7c-.8-.3-.4-1 .1-.8.5.2-.7-.9-.7-.9-.6.5-1.1-.6-1.1-.6h-1.5zm1.6 12.2c-.1 1.2-1.6 1.6-1.6 1.6l-1.1-.3-.6-.5-.1-1.4.9-.1.2.6 2.3.1zm5.4-6.5c.2.9.2-1.4.6-1.3.4.1.1-1.4.1-1.4l-1.8 1.3c.9.1 1 1 1.1 1.4zm5.3-5.2c.4.9.3 2.2 1.8 3.2.5.3-.3 1-.8.7-.5-.3-1.9-2.5-1.9-2.5V222c.3-.8.7-.5.9-.1zm.3 31l.3.5.7-1.1-.6-.2-.7.5.3.3zM325 251v1.2m14.4-2.6l.8-.5-.3-.5-.8.5.3.5zm28.9 21.1l.9.4.1 1.7c1.2 1.2 5.1.2 5.1-.1 0-.3-.2-3.7-.2-3.7l-.5-.5-.1-2.5c.4-1.3-1.9-3.2-2.1-2.8-.2.4-1.5.1-1.5.5s-.8 2.4-.4 3.1c.4.7-.3.7-.4 1.4-.1.6-1.1 1.8-.9 2.5zm-2.2-4.1c-.2.8-.9 1.2-1.3.9-.4-.3.5.5.7.9.2.4.8.4 1 0 .2-.4.1-1.3.3-1.7.2-.4-.6-.5-.7-.1zm-4.7-18.6h.7v1.9h-.7V248zm10.4-19.5c-.4-.6 2-1.6 2.4-.4.4 1.2 0 1-.4.9-.4 0-1.4.4-2-.5zm2.1-13.5l-.1.6 1.1.2.1-.6-1.1-.2zm-4.5 1.5l.8.5.1.1.1-.1.6-.3.1.2.6-.2-.2-.5-.1-.3-.3.2-.7.4-.6-.4-.4.4zm5.5-24.4h-1.5s.5.2-.9-1.1-2.3.3-2.3.3l-1.6.2v1.6l-.8.3.1 1 1.1-.1s0 1.2.3.7 2.8.1 2.6 1.3c-.1.5 2.5 1.8 2.2 3.4 1.3.2 1 1.5 1 1.5l1.7.2.5-1 .5.1v-.5l-1.1-.3-.2-3.2-.7-.5.2-.8-.8-.3.4-1.3-.7-1.5zm4.3 10.3l-.8-.1-1.8.3-1 1.9s.5.3.9 1 .6 4.9-.6 5.6c-1.2.7.1.3.1.3l-.2 2.2c.3 1 .8.5 1.1 0 .3-.5.6-.6 1-1.1.4-.5 1-1.4 1.1-2.1.1-.7.6-1.8.3-2.1-.3-.3.3-1.7.3-1.7s.4-.8 0-1.6.1-1.7.4-2.1l-.8-.5zm1.3 4.2l.1-.8.6.1-.1.8-.6-.1zm-.1 2.8l-.5-.3.3-.6.5.3-.3.6zm-.9-8.1l-.4-.9s0-.8.2-1.2c.2-.4-.4-.8-.7-.9-.3-.1-.2-.9-.3-1.3-.1-.4-.8-.7-.8-.7s-.2-1.5-.2-1.8c0-.3-.9-.7-.6-1s.5-.7.8-.9c.3-.2-.3-1.6.2-1.3.5.3.5.8.7 1.2.2.4-.1 1.8.4 2.1.5.3-.1 1.3.7 1.3.8 0 .3 1.9.3 1.9s-.2 1.4.3 1.5c.5.1.2 2.5.2 2.5l-.8-.5zm-6.4-16.4c.3.4.9.7.9 1.1 0 .4-.2.7.4.8.6.1 1-.1 1.2.4.2.5.2 1.3.1 1.7-.1.4.1 1 .6 1s.6.1.6.4.6-1.1.6-1.1c-.5-.4-.9-1.3-.9-1.3s-.5-1.4-.5-1.6c0-.2-.7-.4-1-.5-.3-.1-.8-1-.8-1l-1.2.1zm1-.9c-.3-.4-.6-.7-1-.9-.4-.2-.7-.4-1.1-.4-.4 0-.7-.3-.6-.7 0-.1 0-.2.1-.2.2-.5-.3-.7-.3-1.1s.3-.4.8-.1c.5.3.4.4.8.9s.6 1 1 .9c.4-.1.7.9 1.1.6.4-.3.3.7.3.7l-1.1.3zm-11.7 11.4c.5.6-3 .4-3 0s.3-1.8 1.2-1.5c.9.3 1-1.8 1-1.8s-.8.1-.1-.3c.7-.4 0-1-.3-1.3-.3-.3-.6-.8-.6-.8h1.4c.6-.4.8-2.3.8-2.3 1.2.4 1.8-.4 1.8-.4s.2.6.6 1.1c.4.5-1 .7-.5 1 .5.3.7 1.2.5 1.5-.2.3-1.3.1-1.3-.3s-.4.5 0 1-.5 1.2-.7 1.2-1.5.2-.4.8c1.1.6 2.3.3 2.3.3s.9-.1 1.2.4c.3.5-.1.6-.6.6s-2.9-.2-2.9-.2-.7.7-.4 1zm-6.4 1c.5-.1 1.7-.2 1.9.1.2.3-.7.7-.7.7l-1.2.2c-.4-.5-.5-.9 0-1zm12.9-8.5c.8-.4 2.5-.4 2.4-1-.1-.6 1-.8 1-.8l.3 1.2.9.6.1 1.1s.3-.2-.8.1c-1.1.3-.4.8-.4.8l-2.4.1-.3-1-.8-1.1zm-3.9-5.5c.6 0-.2 2.3 1.4 2.1 1.6-.2.1.7 1.3.8 1.2.1.9-.9 1.3-1.6.4-.7.2-1.1-.5-1.3-.7-.2-.7-.2-.9-1-.2-.8-1-1-1-1l-.3-1.2-1.3.8-1.3 1.7c0 1.3.7.7 1.3.7zm2.6 8.5l.3-.6.5.3-.3.6-.5-.3zm-1-.9h.6v.7h-.6v-.7zm.5-13.5l.1.9-.6.1-.1-.9.6-.1zm-1.7 9.4h.6v.5h-.6v-.5zm-1.6 0l-.1-.6 1-.1.1.6-1 .1zm-8.2 9.8l-.5-.2.3-.7.5.2-.3.7zm-3.1-1.9l-.1-.6 1-.1.1.6-1 .1zm-17.4-.2l-2.2.1v.6l2.2-.1v-.6zm-3.6.9l-.2-.9.6-.1.2.9-.6.1zm-.4.6l-.2-.6.3-.1.2.6-.3.1zm5-1.7l-.1.7 1.1.1s.5.4.5.7c0 .3.7.6 1.1.6.4 0 1.5-.8 1.5-.8s.5-1.4.1-1.3c-.4.1-1.2.7-1.3.1-.1-.6-1.3-.3-1.3-.3l-1.6.2zm4.9-1.1c0 .3-.2.7.4.8.6.1 1.7-.4 1.8.2.1.6.1 1 .9 1.3.8.3 1.3.4 1.9.4.6 0 1.9-.2 1.9-.2s1.4.2 1.7.5c1.1 1.1 1.8 1.4 2.1.9.3-.5-.1-1.6-.2-2-.1-.4-1.5-2.3-2-1.9-.5.4-.6 0-1.5.3s-2.8.1-2.9-.3c-.1-.4-1.5-.6-1.5-1s-1-.9-.9-.3c.1.6-.7.9-.9.7-.2-.2-.8.6-.8.6zm23-13l.7-2.2c-1-.2-.8-1.3-.8-1.3-.1-.9-1.5-1.9-2-1.6-.5.3-.3-2.1-.3-2.1s.9-.6 1.3-.3-3.4-5.1-4.2-4.6c-.8.5-2.6-.5-2.5-1.4.1-.9-3.6-3.9-3.6-3.9s-1.2-.8-1.4-.2c-.2.6-.6 1 0 1.3.6.3.5-.5 1.2.2s2 1.6 1.5 2.2c-.5.6-1.1.8-1.1.8l.7.8h1.1l.2 1.7s1.2.6 1.5 1.3c.3.7.3 1.1 0 1.5-.3.4-.9 1.1-.8 1.8.1.7.9 1 .9 1l.8.1.6.3v1.3c.8-.2 2.1.9 2 1.6-.1.7.2.3 1.2 1s.7.8 1.4 1.3c.7.7 1.3.4 1.6-.6z"/><path class="st0" d="M347.5 165.6c-.1-.4-.3-1.8.3-1.7.6.1.2 0 .9.3s.8-.5.8-.5h1.1l1.4 1.1-.2.9-1 .1c-.5-.8-1.5-.5-1.3.2.2.7-.5 2-.9 2.1-.4.1-1.7.1-1.6-.5.1-.6.5-2 .5-2zm-.8-2.8v-.8s-.1-.8-.6-.8-1.4-.6-1.2-1c.2-.4-1.7-.8-1.7-.8s-1.7-1.6-1.1-1.4c.6.2.3-.7.3-.7s-1.2.2-1.5.1c-.3-.1-.2-1-.2-1s-1.2-.3-1.2 0 .4.3.6.9c.2.6.1 1.6 1 1.8.9.2 1.1.4 1.2.8.1.4 1.2.5 1.2.5l.8.4 2.4 2zM336 152.5l-.3-.8-.8-.2v.9l1.1.1zm-.3-4.2c-1-.8 1.4.6 1.4.6.8 0 1.3.6 1.3.9 0 .3 1.1.2 1.1.2l.1-.7-.8-1-.7-.5s-1.1-.1-1.1-.4c0-.3-.9 1.2-1.3.9zm18.3.6c-.3.9-.4 2.1-.9 2.1s-.3 1.3-.3 1.3 1.3 0 1.7.1c.4.1.4 1.1.4 1.1 1.5-.1 2.1 1.9 1.9 2.4-.2.5.6.5.6.5s0 1.6-.2 2c-.2.4 1.3.7 1.7 1.3.4.6-.2 2.6-.5 2.7-.3.1.8.4.7.9-.1.5.3 0 .4.8.1.8.3 2.5.3 2.5l1.4.1c.2-1.3 2.8-1.4 3.2-1.2 1.7.6 3 3.2 3 3.8 0 .6-1.1.7-1.1.7l.2 2.9c1.7.5 3.1 2.9 2.9 3.3-.2.4 1.2.3 1.2.3.2-1.8 1.9-1.2 2-.6.1.6.4 1.9.4 1.9l.5.9.7.7 1.1-.1.3.6 1.3.2s1.1 1.2 1.2 1.5c.1.3 1.6.2 2 .3.4.1 1 .4 1.1.9.1.5.7 1.3.7 1.3s1.2.3 1.3.7c.1.4.6 1.3.6 1.3l1 .8.1.9 1.1.1.3 1.2 1.8-.1 1-.7c1.3-.7 2.2-1.6 2.3-2s.3-1.9 1.3-1.6c1 .3.3-2.2.3-2.2s-1.4-1-1.3-1.5c.1-.5-1.4-1.5-1.3-1.9.1-.4-1.3-1.2-1.2-1.6.1-.4-.7-1.5-.7-1.5l-1.5-1.4-.2-.9-1.2-.1-2.4-2.9.1-.8-.7-.1v-1.1l-.7-.4-1.1-.1-2.2-2.4-.2-1.1h-1.1l.2-2.1c.7-.9.3-2.6.3-2.6s-1.4.7-2.1.4c-.7-.3.3-1 .3-1v-.8l-.6-.6s-1.7.2-1.8-.1c-.1-.3-.4-1.6-.4-1.6l-.1-1.7-.7-.3-.1-.6-1.1.1v-1.2l-.6-.2-.6-.3-.1-1.2-2.2-.1-.7-1-.8-1.2-2.5-.2-.6-.6-1-.2-.7-.3-.3.5-1.9.1-.1.6c-1 .5-5 .1-5.1.4zm10.5-2.7c-.2-.8 2-1.5 2.5-.9s1.9.7 2.1 3.7c.1 1.1-1.8-1.1-1.8-1.1l-1.5-.5c-.8-.1-1.2-.6-1.3-1.2zm-29.3 1.3l-.5-.2.4-.9.5.2-.4.9zm-5.1-10l-1.3-1.3v-1.1l-.4-.4-.4-1.4-1.3-.4-1.3.5-1.4.9-1.5.2-.8.9 3.2.3.6 1 2.3.2 1.5 1.5c1.3.5 1.6-.1.8-.9zm-.2-4.9c-.2-.9-1.5 1.1-.2 1.5 1.3.4 2.6 0 2.6 0l.3-.6 5 .1c.4-.4.6-1 .6-1s1.2-.4 1.7-.2.1-1.4-.4-1.2c-.5.2-1.5.1-1.5.1h-1.8c-.1-.7-1.7-.4-1.8 0-.1.4-.7.5-.7.5l-2.3.2c-.2.6-1.4 1-1.5.6zm-9.9 17.1c1.5.5 2.1.1 2.2-.3.1-.4.2-.5.8-.6.6-.1-.1-1.3-.7-1.2-.6.1-1.2-.2-1.3-.7-.1-.5-1.1-1.8-1.2-.8-.1 1-.7 1-.6 1.7.1.7.4 1.7.8 1.9zm-11.5 1.1c-.1-.4 2-.4 2.3-.1.3.3.1.8 1 .8s.5.6.4.9c-.1.3-1.1.2-1.2-.1-.1-.3-1.6-.4-1.6-.4s-.8-.6-.9-1.1zm34-21.7l-.8.6-.5-.5-.4.4.7.7.2.2.2-.2 1-.8-.4-.4zm-5.5-1.8l-.6-.4-.3.5.8.5.2.1.2-.1 1.1-.7-.3-.5-1.1.6zm-3.3 20.8h-.1l-1-.1-.1.6.9.1.6 1 .5-.3-.7-1.1-.1-.2zm-32.9 28.2l.1 1.1h1.5c.6 0-.5-.7-.5-.7s-1.2.1-1.1-.4zm1.9 0l.4-.5.6.5-.4.5-.6-.5zm-18.2-18.9l.4-.4.6.6-.4.4-.6-.6zm29 130.3l-1-.5-.3.5.6.3-.2.2.4.4.5-.5.3-.3-.3-.1zm-7.8-7.3l-.4-.5-.6.5-.3.3.3.2.7.5.3-.5-.4-.3.4-.2zm74.2-19.2c-.1-.5-.7-.7-.8-.8l-.2.6s.1.1.2.1l.1.5c0 .1-.1.1-.1.2l.4.4c.4-.3.5-.7.4-1zm.9-1.9l-1-.1.1-.9 1 .2-.1.8zm23.1-7.9c.4-.3 1-.8.9.4-.1 1.1-.5.8-.9 1.1-.3.4-.6-1.1 0-1.5zm5.1-4.3v-.1c0-.2-.1-.4-.2-.6l-.5.3c.1.1.1.3.1.4 0 .2 0 .4.2.5.1.1.2.1.4.1l-.1-.6c0-.1.1 0 .1 0zm-1.3.5l.4 1.2.6-.2c-.1-.4-.3-.8-.4-1.2l-.6.2zm-2.2 2.4l-.6-.1c0 .5.1 1.1.5 1.2l.1-.6v-.5zm-2.6-12.1c0-.2-.2-.4-.3-.4-.4-.2-1.2.1-1.6.4l.3.5c.4-.3.9-.4 1-.3l.6-.2zm-27.6-32.3c-.4.4-1.3.6-1.3.6l-.3 1.1-.5.4s.1.3 0 1-1 1.1-1 1.1l-.4.5s-2.4.1-2.7 0c-.9-.4-.3-1.6.3-1.5.6.1-.1-1.7-.1-1.7l.8-.1s.1-1.8.4-1.8c.3 0-.1-.6-.5-.9-.4-.3-.9-1.3-1.3-1.2-.4.1-2 0-2 0l-.3.6-1.1.2s.1.8-.1 1c-.6.7-2.9 2.2-1.9-.3l.3-.6v-1l-1.8-.1s-.9-.3-.9-.7c0-.4-.1-.9-.1-.9l-2.1-2.3-2.5-.3-.2-.5-1.5-.2c-1.8-.9-3.4-.1-3.1 1.4.3 1.5.8 2.1-.2 2.1s-1.2-.8-1.2-.8-.8-.3-.8.1-.3 1.2 0 1.6c.3.4-.4 1-.7.7-.3-.3-1.1-1.2-.9-1.5s-1.4-2.2.2-2.5c1.6-.3-.1-1.2.5-1.4l.8-.4h.8l.5-.4-1.3-.2-.8-.1-1.5-.1c-1.5 1-1.8 2.2-1.8 2.2-.8 1.5-2.7-.6-2-1.4.7-.8-2.2-.1-2.7.3s-2 .2-2 .2c-.3.9-1.7-.1-1.3-.7.4-.6.4-1 .4-1l-.4-.1-.6 1.1c-1.4 0-1.8.8-1.5 1.3.3.5-.4-.1-.6.6-.2.7.1.7.7 1 .6.3-.3.3.1.8s1.6 0 .9.7c-.7.7-2.1.4-2.1.4-.1.9-2 .7-2.2.4-.2-.3-1.7-2.1-1.7-2.1l-1.9-.1c-.2-1.4.9-.7 1.3-1.8s.6-2.9.6-2.9-1.6-.1-1.7.4c-.1.5-1.1.8-1.1.8s-.8.3-.5.7c.3.4-.6.6-.6.6s.2.7-.1.9c-.8.8-2.8.1-3.1-.2l-1.2-.5-1.2-.8-1.4.6-.4.4h-1.5l-.1 1.2 2.7.3.2 2.5-1.1-.4h-.7l-.3-.6-.6-.1v2.2l.6.5.5.5 1 .1.2 1.2 2.5.1.3.5 1.5.1 2.9 2.9-.2.9-.5.3c.2.7-1.3.3-1.3.3v.6l.7.1.7.4 1-1.7c1.1-.7 1.6.3 1.7.9.1.6-.5.5-.5.5v1.4l.6.2c1 1.2-.4 1.9-.4 1.9l-.3 1c-.3.9-1.4.7-1.4.7l-.4.6-1.2.3 2.4.3c.2-.8.8-1 1.1-.6.3.4.3 1.1.3 1.1l.6.1-.1 1.1.6.2v3.2l.7.8c1.2-.5 1.2.3.6.7-.6.4-.2 2.2-.2 2.2l-.5.5v.8l-.6.4v1.1c-1-.5-2.2-.3-2.5 0-.9-.6-2.8-.4-2.8.1.6.8-.7 1-.7 1l-.7.8c.5 1-.5 1.1-.5 1.1v1.9l-1.2 1.1.1 2.6c0 .7 1.5.8 1.8.4.3-.4 1.5.8 1.5.8h.9l.2-1.8-.6-.3v-2.9l1-1.1c1.2-.4.8 2.6.8 2.9.1 1.1.6 1 1.1.8 1-.4.2 1.1-.6 1-.8-.1-.3 1-.3 1l.5.2-.9.7-.8.9-1-.3-1.2-.1-.4-.7-.7-.1-.1 1.4-.5.6-1.2 1.2c1.6 0-.2 1.1-.6 1.1.9.3-.1 1.2-2.4.5v.7l-.8.1.7.8.8.1-.3 1.7c0 1.3-3.3.4-3.6.1l-.1 1.8-.6.1.1 1.2-.1 1.7 1.1-.2v.7l2.7.1 3.9-4.1 2.3-.5c.2-1 1.2.2 1.2.2 1-.1 1.2.6 1.2.6l1.3.2c1.1.3.4.4.5.8.1.6.6.4.6.4l.2-1.3.6.1-.6-.7-1.1-.5-1.2-.5c-.8-1.1.2-.9 1-.8h1.3s1.5 2 1.5 2.5.7.6.7.6l.9-.1.3.7h.9l.3.6h1.8l.1-.9-1.7-.3-.1-1-1.2-.3c-.4-1.7.3-2.2.8-1.4l.6.1-.2-1.5.7-.2-.2-2.1-.6-.2v-.7l2.5.1c-.2-1.3.1-1.9.1-1.9h.7l.1.5 3 .3 2.2-2.5c-.1-.2.2-.3 0-.5-.3-.3-.7 0-1.2-.3s0-2-.1-2.4c-.1-.4 1.7-1 1.4-.1-.3.9 0 1.3 0 1.3 1.3-1.2 2.4.1 2.3.4-.1.3.7.6 1.2.3s1.1.9.9 1.5c-.2.6-2 .5-2.1-.1-.1-.6-.4-.4-.6-.1-.2.3-1.1.5-1.6.2-.1 0-.1-.1-.2-.2l-2.2 2.5h.1c1.2.7.6 1.6.2 1.8-.4.2-1.1.2-1.1.2l-.2.4-2.6.2-.2 1c-1.3-.2-1.8 1.2-1.5 1.9.3.7 0 1.3 0 1.3l1.1.5 1.4-.4c.2-1 1.1-1.2 1.9-1.8.8-.6 2.1 1.1 1.7 1.9-.4.8-.4 1.1-.4 1.1l.1.9-1 .4-.8.4-.1.5h-2.7l-.5.5-1.3.1-.4.6-.9.1s-1.5.7-.9 1.5-2.5.7-3.2-.4c-.2 1-1.3.1-1.3.1l-1.1-.3-.1-1.5c-.2-1-2.1-1-2-.3.1.7-3.6.3-3.6.3l-1.2.6-1.1.6-.1.5-1.8.2-.8.4-.3-.6h-.8l-.8 1.1c-2.1.1-4.1 1.3-3.9 1.8.2.5-.8 1-.8 1l-.9.3-.6.9-1.2.4-.2 2.1-.6.4v.9l-.7.2v.5l-1 .1.6 1.5.8.4c1.4.2.8 1.9.8 1.9l.8.1.4 1.1.8 1.6c.3 1.2 1.2.9 1.6.8.4-.1.8 1.2.8 1.2l4 .1s-.2.4.5.6c.7.2 5.3.4 5.5.1-.2-.9 2.5-1.1 3.6-.3s2.6.3 2.6.3l1.5 1.8 1 2.2 1.7.5 1.2.3.4 1.7.9.1.3 1.1c1.1.8-.3 2.5-.3 2.5v2.2l.8.4-.1.8 1.3 1.3 1.5.1 3.8 4 3 .9.5 1.6.8-.1.6-.5 2.4-.1 1.2-1.1 1.3-.2L362 285l-1-.6v-2.2c1.8-1.3 1.9-3.6.2-3.8-1.3-.2-.7-1.5.5-1.7l.7-.3v-.9l2.3-2.1v-1.6l-5-4.2c-2.2-.8 0-5.7 1.5-5.6 1.5.1-.1-7.5-.1-7.5l-.8-.4.2-2.4h-1.1l-1.8 2.3-.5 1.6c-.2 2.1-6.4 1.7-6.7 1.4-.3-.3-2.4-1.2-2.4-1.2s-1.6-1.3-1.9-.9c-.3.4-1.7-.5-1.7-.2s-1.3-.7-1.3-.7l-2-.7 1.5-.3-.3-1.2 2.6 1.3c.3.4 1.6.3 1.6.3l.4.5s.8-.1 1.3.5 3.1.1 3.1.1l.7.6 1.1.4 3.1.1.1-1.9.6-.6-.1-1.2.7-.6v-1l.6-.2.1-2.2.5-.1v-4.9l-1.5-1.4c-.1.5-1.7.5-1.7.5s-.4.7-.7.7c-.3 0 .4.9.2 1.5s-1 .6-1 .6l-1.5.4-.4.5h-1.6l-.2-1.3 1.8-.5 1-.5.5-1c.1-1 1.3-.9 1.3-.9s2.3-1.9 2.4-2.8c.1-.9.9-3.4 2.3-3.4h2.6c1-.4.7-1.7.7-1.7l1.3-.2.2.7s1.8.2 2-.1c.2-.3.6-1 1.1-.7.5.3 2.1-.7 2.1-.7.1-.7 2.6-.4 2.6-.4l.3-.9s-1.7-2.3-2-2.3c-.3 0-1.9-1.4-2.1-.9-1.6-.4-1.5-2.6-1.5-2.6l-.6-1.4c0-.8-1.5-2.5-1.8-2.3-1.5-1.1-.4-2.4 0-2.5.4-.1 1.4-1.5 1.4-1.5l.5-1.4 1.7-.5.2-1.3-.9-.1s1-1.8 1.5-1.8 3.8 0 4.1-.2c.3-.2.9-1.8.9-2.1 0-.3.8-.4 1.1-.5.3-.1 1-.9 1.2-1.3.2-.9-.5-3.4-.9-3z"/><path class="st0" d="M320 242.1c.1-.1.3.5.6.4.3-.1.4.5.1.5-.3 0-.3.4-.3.5s0 .5-.2.8c-.2.2-.5.1-.8-.1-.3-.2-.4-.2-.8-.2s-.1.6-.1.6-1.6-.1-1.3-.3c.3-.2.6-.3.4-.5-.2-.1 0-.3 0-.6s.8-.2.5-.4c-.2-.2 0-1.1.4-.6l.2-.5c-.2-.2-.1-.3-.5-.5-.5-.2-.1-1.1-.1-1.1l.1-.6c.1-.8 1.6-.8 1.7-.2.1.7 0 1.1 0 1.1l.5.1s-.1.5-.5.5 0 .2-.2.5l.3.6zm-4.9.7c.2-.5.7-2.4 1.3-1.8.6.6 1 0 1 0s.3.3.1.9c-.1.6-.3 1.2-.7 1.3-.4.1-.7.3-1.1.4-.4.1-.6-.8-.6-.8z"/><path class="st1" d="M634.9 238.4c0 48.9.4 97.8-.2 146.7-.3 29.8-14.1 46.6-46.1 40.8-111.2-20.2-219 4.9-326.6 26.6-62.6 12.7-125 11.6-187.8 8.2-45.6-2.4-69.6-26.1-69.2-73.8.8-94.3.6-188.7.2-283C5.1 67.2 21.6 54.6 57.7 60 163 75.8 265.8 62.7 367.9 34.2c67.8-18.9 137.5-22.3 207.6-9.4 40.9 7.5 60.6 29.7 59.4 72.1-1.3 47.1-.3 94.3-.3 141.5h.3z"/></svg>