<?xml version="1.0" encoding="utf-8"?>
<!-- Generator: Adobe Illustrator 21.0.2, SVG Export Plug-In . SVG Version: 6.00 Build 0)  -->
<svg version="1.1" id="Layer_1" xmlns="http://www.w3.org/2000/svg" xmlns:xlink="http://www.w3.org/1999/xlink" x="0px" y="0px"
	 viewBox="0 0 640 480" style="enable-background:new 0 0 640 480;" xml:space="preserve">
<style type="text/css">
	.st0{fill:#FFFFFF;}
	.st1{fill:#EBEBEB;}
</style>
<g transform="matrix(.6 0 0 .6 -40.65 0)">
	<path id="a" class="st0" d="M663.9,587c-2.7,3.1-6.2,6-9.5,8.6c-21.2-21.9-46.2-46.3-69.9-46.3c-14.7,0-25.3,11.2-37.6,19.1
		c-17.1,11-40.6,17.1-60.8,9.1c-10.8-4.1-21.3-10.2-29.2-20c15.8,10.9,39.6,12.4,57.5,5c19.8-8.2,39.9-19.1,62.4-19.1
		C610.1,543.4,641.7,565.9,663.9,587L663.9,587z M418.3,518c22,25,57.9,17,87.2,23.2c4.1,0.9,7.9,2.2,12.3,1.6
		c-3.5-2.2-8.1-2.5-12.1-4c-22.8-8.6-26.3-33-38.8-49.7c15.9,10.6,29.1,25.1,44,38.7c10.4,9.5,23.3,13.5,36.7,16.3
		c-3.2,1.2-7.4,0.9-10.9,1.8c-24.1,6-50.7,15.4-76.3,6.9C443.8,547.3,426.7,534.4,418.3,518L418.3,518z M383.1,460.1
		c13.7,31.1,48.2,33.5,71.1,52.6c4.4,3.6,8.7,7,13.5,9.2l0.2-0.2c-5.3-4.8-11-10.5-15.1-16.4c-13.1-19-8.7-45-18.8-65.2
		c9.2,11,17.8,22.3,23.1,34.9c8.5,20.2,11.4,43.3,30.5,58.7c-20.6-6.8-44.5-5.5-63-17.6C404.9,503.1,386.8,482.9,383.1,460.1
		L383.1,460.1z M368.4,397.2c2,27.4,31.1,42,45,64.5c3,4.8,6,9.8,10.3,13.6c-0.7-2.9-3.1-5.5-4.4-8.4c-4.5-9.7-6.5-20.8-5.4-32.3
		c1.4-14,7.2-27,4.9-41.7c12,25.8,8.1,58.2,15,86.1c1.5,6.2,5.3,11.6,7.6,17.5c-11.8-9-27.2-16.9-40.1-27.1
		c-12.5-9.8-23.3-21.4-29-36.4C368.4,422.3,367.4,409.4,368.4,397.2L368.4,397.2z M369.2,346.8c1.4-6.1,2.5-12.4,5.1-18
		c-5,25.8,12.1,44.5,18,66.8c2.2,8.4,3,17.4,6.4,25.2c0.3,0.2,0.6-0.2,0.8-0.4c-8.5-23.8,3.9-45.7,16-64.5
		c3.2-4.9,4.7-10.7,6.2-16.5c1.3,10.8-1,23.2-3,34.3c-2.6,14.3-7.5,27.7-11.3,41.5c-2.6,8.6-1.9,18.3-0.6,27.4l-1.2-1
		c-9-16.6-26.8-29.6-32.2-47.8C369.2,379.3,366.2,362.6,369.2,346.8z M378.7,319c0-19.5,7.6-35.5,19-50c0.3-0.2,0.6-0.5,1-0.4
		c-12.6,19.1-1.1,43.2-2.7,64.9l-1.7,22.2c0.2,0.2,0.2,0.8,0.8,0.6c0.7-2.5,1-5.1,1.4-7.7c3-17.9,18.8-30.4,32.1-43.1
		c3.1-2.9,5.4-6.4,7-10.3c-1.1,8.9-3.6,18.1-7.6,26.2c-10.3,20.8-30.1,37.6-33.7,61.3C392.6,360,378.7,343.2,378.7,319L378.7,319z
		 M411.8,253.1c6.3-7,13.4-12.5,21.8-14.6c-16.4,11.3-15.5,31.4-20.5,48.2c-1.8,6.1-4.5,11.9-6,18.3l0.4,0.3
		c2.7-7.2,7.4-14.1,13.5-19.8c11.5-10.9,28.8-17.4,34.5-33.3c-0.3,22.1-19.1,38.9-36.3,51.8c-7.7,5.8-14.3,13.6-18.3,21.8
		c0.7-6.1,1-11.2,0.4-17.1C399.7,289.4,398.6,267.8,411.8,253.1L411.8,253.1z M478.2,216c-12.1,10.7-20.2,24.4-29.6,36.7
		c-7.8,10.3-18.4,16.6-27.6,25.2c4.9-10.3,5.9-22,12.1-31.9C443.9,229,461.7,222.5,478.2,216L478.2,216z"/>
	<g transform="matrix(-1 0 0 1 1202.2 0)">
		<path id="a_1_" class="st0" d="M538.3,587c2.7,3.1,6.2,6,9.5,8.6c21.2-21.9,46.2-46.3,69.9-46.3c14.7,0,25.3,11.2,37.6,19.1
			c17.1,11,40.6,17.1,60.8,9.1c10.8-4.1,21.3-10.2,29.2-20c-15.8,10.9-39.6,12.4-57.5,5c-19.8-8.2-39.9-19.1-62.4-19.1
			C592.1,543.4,560.5,565.9,538.3,587L538.3,587z M783.9,518c-22,25-57.9,17-87.2,23.2c-4.1,0.9-7.9,2.2-12.3,1.6
			c3.5-2.2,8.1-2.5,12.2-4c22.8-8.6,26.3-33,38.8-49.7c-15.9,10.6-29.1,25.1-44,38.7c-10.4,9.5-23.3,13.5-36.7,16.3
			c3.2,1.2,7.4,0.9,10.9,1.8c24.1,6,50.7,15.4,76.3,6.9C758.4,547.3,775.5,534.4,783.9,518L783.9,518z M819.1,460.1
			c-13.7,31.1-48.2,33.5-71.1,52.6c-4.4,3.6-8.7,7-13.5,9.2l-0.2-0.2c5.3-4.8,11-10.5,15.1-16.4c13.1-19,8.7-45,18.8-65.2
			c-9.2,11-17.8,22.3-23.1,34.9c-8.5,20.2-11.4,43.3-30.5,58.7c20.6-6.8,44.5-5.5,63-17.6C797.3,503.1,815.4,482.9,819.1,460.1
			L819.1,460.1z M833.8,397.2c-2,27.4-31.1,42-45,64.5c-3,4.8-6,9.8-10.3,13.6c0.7-2.9,3.1-5.5,4.4-8.4c4.5-9.7,6.5-20.8,5.4-32.3
			c-1.4-14-7.2-27-4.9-41.7c-12,25.8-8.1,58.2-15,86.1c-1.5,6.2-5.3,11.6-7.6,17.5c11.8-9,27.2-16.9,40.1-27.1
			c12.5-9.8,23.3-21.4,29-36.4C833.8,422.3,834.8,409.4,833.8,397.2L833.8,397.2z M833,346.8c-1.4-6.1-2.5-12.4-5.1-18
			c5,25.8-12.1,44.5-18,66.8c-2.2,8.4-3,17.4-6.4,25.2c-0.3,0.2-0.6-0.2-0.8-0.4c8.5-23.8-3.9-45.7-16-64.5
			c-3.2-4.9-4.7-10.7-6.2-16.5c-1.3,10.8,1,23.2,3,34.3c2.6,14.3,7.5,27.7,11.3,41.5c2.6,8.6,1.9,18.3,0.6,27.4l1.2-1
			c9-16.6,26.8-29.6,32.2-47.8C833,379.3,836,362.6,833,346.8z M823.5,319c0-19.5-7.6-35.5-19-50c-0.3-0.2-0.6-0.5-1-0.4
			c12.6,19.1,1.1,43.2,2.7,64.9l1.7,22.2c-0.2,0.2-0.2,0.8-0.8,0.6c-0.7-2.5-1-5.1-1.4-7.7c-3-17.9-18.8-30.4-32.1-43.1
			c-3.1-2.9-5.4-6.4-7-10.3c1.1,8.9,3.6,18.1,7.6,26.2c10.3,20.8,30.1,37.6,33.7,61.3C809.6,360,823.5,343.2,823.5,319L823.5,319z
			 M790.4,253.1c-6.3-7-13.4-12.5-21.8-14.6c16.4,11.3,15.5,31.4,20.5,48.2c1.8,6.1,4.5,11.9,6,18.3l-0.4,0.3
			c-2.7-7.2-7.4-14.1-13.5-19.8c-11.5-10.9-28.8-17.4-34.5-33.3c0.3,22.1,19.1,38.9,36.3,51.8c7.7,5.8,14.3,13.6,18.3,21.8
			c-0.7-6.1-1-11.2-0.4-17.1C802.5,289.4,803.6,267.8,790.4,253.1L790.4,253.1z M724,216c12.1,10.7,20.2,24.4,29.6,36.7
			c7.8,10.3,18.4,16.6,27.6,25.2c-4.9-10.3-5.9-22-12.1-31.9C758.3,229,740.5,222.5,724,216L724,216z"/>
	</g>
</g>
<path class="st0" d="M409,262l-2.2-1.2c-4.5,9.4-10.6,17.9-17.8,25.4l-12.6-12.6c6.2-6.4,11.1-13.6,14.8-21.3l-2.1-1.2
	c-3.6,7.7-8.5,14.7-14.4,20.8l-11.4-11.4c4.8-5,8.7-10.8,11.6-17.2l-2.1-1.2c-2.7,6.1-6.5,11.8-11.1,16.6l-12.6-12.6
	c3.5-3.7,6.2-7.9,8-12.6l-2.1-1.2c-1.7,4.5-4.3,8.6-7.6,12.1l-11.4-11.4c3.2-3.6,5.2-8.2,5.4-13.1h16.2c-0.1,4.3-1,8.5-2.5,12.4
	l2.1,1.2c1.7-4.3,2.7-8.9,2.8-13.6h17.8c-0.2,7.6-1.8,15.2-4.9,22.2l2.1,1.2c3.3-7.3,5-15.3,5.2-23.3h16.1
	c-0.2,10.7-2.6,21.3-7.2,31.1l2.1,1.2c4.7-10,7.2-20.9,7.4-32.2h17.8c-0.2,14.1-3.4,28-9.6,40.8L409,262c6.4-13.3,9.9-27.9,9.9-43.1
	c0-12.9-2.5-25.5-7.2-37.1l-2.2,0.9c4.4,11,6.8,22.8,7,34.9h-17.8c-0.1-9.6-2-19-5.5-27.9l-2.2,0.9c3.4,8.6,5.2,17.7,5.4,27h-16.1
	c-0.1-7-1.5-14-4-20.6l-2.2,0.9c2.4,6.3,3.7,12.9,3.9,19.6h-17.8c-0.1-4.3-0.9-8.6-2.4-12.6l-2.2,0.9c1.4,3.7,2.1,7.7,2.2,11.6
	h-16.2c-0.3-4.8-2.2-9.5-5.4-13.1l11.4-11.4c3.5,3.7,6.2,8.1,7.9,12.8l2.2-0.9c-1.9-5.1-4.7-9.7-8.4-13.6l12.6-12.6
	c5.4,5.6,9.5,12.1,12.2,19.2l2.2-0.9c-2.9-7.4-7.2-14.2-12.7-19.9l11.4-11.4c7.1,7.3,12.5,15.8,16.1,24.9l2.2-0.9
	c-3.8-9.5-9.4-18.2-16.6-25.7l12.6-12.6c8.9,9.1,15.8,19.7,20.4,31.2l2.2-0.9c-4.9-12.1-12.2-23.3-21.8-32.8
	c-9.6-9.6-20.8-16.9-33-21.8l-0.9,2.2c11.5,4.6,22.2,11.5,31.3,20.5l-12.6,12.6c-7.4-7.2-15.9-12.7-25.2-16.5l-0.9,2.2
	c9,3.6,17.2,9,24.4,15.9l-11.4,11.4c-5.5-5.3-11.9-9.4-18.9-12.3l-0.9,2.2c6.7,2.8,12.8,6.8,18.1,11.8l-12.6,12.6
	c-3.5-3.3-7.6-5.9-12-7.8l-0.9,2.2c4.1,1.7,7.9,4.2,11.2,7.3L334.3,203c-3.6-3.2-8.2-5.2-13.1-5.4v-16.2c4.6,0.1,9.1,1.1,13.3,2.9
	l0.9-2.2c-4.5-1.9-9.3-2.9-14.2-3v-17.8c7.1,0.1,14.1,1.6,20.7,4.3l0.9-2.2c-6.9-2.8-14.2-4.3-21.6-4.4v-16.2
	c9.6,0.1,18.9,2.1,27.5,5.6l0.9-2.2c-8.9-3.6-18.5-5.6-28.4-5.7v-17.8c12.1,0.1,23.9,2.5,34.9,6.9l0.9-2.2
	c-11.6-4.7-24.1-7.1-36.9-7.1c-15.4,0-30.5,3.6-44.2,10.5l1.1,2.1c12.9-6.5,27.1-10,42-10.2v17.8c-11.7,0.2-23.2,3-33.7,8.2l1.1,2.1
	c10-5,21.1-7.7,32.6-7.9v16.1c-8.7,0.2-17.3,2.2-25.1,6.1l1.1,2.1c7.5-3.6,15.7-5.6,24-5.8V179c-5.4,0.2-10.8,1.4-15.7,3.7l1.1,2.1
	c4.6-2.1,9.6-3.3,14.6-3.5v16.2c-2.4,0.1-4.8,0.7-7.1,1.6l1.1,2.1c2.3-0.9,4.7-1.4,7.2-1.4c5.1,0,9.9,2,13.5,5.6
	c3.6,3.6,5.6,8.4,5.6,13.4c0,10.5-8.5,19-19,19c-5,0-9.9-2-13.5-5.6c-3.6-3.6-5.6-8.4-5.6-13.4c0-5.1,2-9.9,5.6-13.4
	c1.8-1.8,3.9-3.2,6.2-4.2l-1.1-2.1c-2.2,0.9-4.2,2.2-5.9,3.8l-11.4-11.4c2.9-2.7,6.2-5,9.9-6.7l-1.1-2.1c-3.8,1.8-7.4,4.2-10.5,7.1
	L280,177.2c4.4-4.2,9.4-7.7,14.8-10.3l-1.1-2.1c-5.6,2.8-10.8,6.4-15.4,10.7l-11.4-11.4c5.7-5.5,12.2-10.1,19.3-13.6l-1.1-2.1
	c-7.3,3.6-14,8.4-19.9,14.1l-12.6-12.6c7.1-7,15.3-12.8,24.2-17.3l-1.1-2.1c-19.3,9.7-34.9,25.4-44.5,44.8l2.1,1.1
	c4.5-9.2,10.4-17.6,17.6-24.9l12.6,12.6c-5.9,6.1-10.8,13.1-14.5,20.7l2.1,1.1c3.6-7.4,8.3-14.3,14.1-20.2l11.4,11.4
	c-4.6,4.8-8.4,10.4-11.2,16.5l2.1,1.1c2.7-5.9,6.4-11.3,10.8-15.9l12.6,12.6c-3.3,3.4-5.9,7.4-7.7,11.8l2.1,1.1
	c1.7-4.2,4.2-8,7.3-11.3l11.4,11.4c-3.2,3.6-5.1,8.2-5.4,13.1h-16.2c0.1-4.5,1.1-9,2.8-13.2l-2.1-1.1c-1.9,4.6-3,9.4-3.1,14.4h-17.8
	c0.1-7.9,1.9-15.7,5.2-22.9l-2.1-1.1c-3.5,7.5-5.4,15.7-5.5,24h-16.1c0.2-11.1,2.7-21.9,7.4-31.7l-2.1-1.1
	c-4.9,10.2-7.6,21.4-7.7,32.8h-17.8c0.2-14.6,3.6-28.6,9.8-41.3l-2.1-1.1c-6.7,13.6-10.2,28.5-10.2,43.6c0,9.4,1.3,18.8,4,27.9
	l2.3-0.6c-2.5-8.5-3.8-17.3-3.9-26.1h17.8c0.1,7.4,1.2,14.7,3.4,21.7l2.3-0.6c-2.1-6.9-3.2-14-3.3-21.1h16.1
	c0.1,5.8,1.1,11.6,2.9,17.2l2.3-0.6c-1.7-5.4-2.7-11-2.8-16.6h17.8c0.1,4.2,0.9,8.3,2.3,12.2l2.3-0.6c-1.4-3.7-2.1-7.7-2.2-11.7
	h16.2c0.3,4.8,2.2,9.5,5.4,13.1l-11.4,11.4c-3.5-3.7-6.2-8.1-7.9-12.8l-2.3,0.6c1.9,5.2,4.8,9.9,8.5,13.9l-12.6,12.6
	c-6.1-6.3-10.6-13.9-13.3-22.2l-2.3,0.6c2.8,8.6,7.5,16.6,13.9,23.3L265.2,272c-8.5-8.8-14.7-19.3-18.2-30.7l-2.3,0.6
	c3.6,11.8,10,22.7,18.8,31.8l-12.6,12.6c-11.2-11.4-19.1-25.2-23.5-40.1l-2.3,0.6c4.6,15.7,13.1,30.1,25,42
	c8.1,8.1,17.3,14.6,27.3,19.3l1.2-2.1c-9.5-4.5-18.2-10.6-25.9-18.1l12.6-12.6c6.4,6.3,13.9,11.4,22.1,15.1l1.2-2.1
	c-8-3.6-15.3-8.6-21.6-14.7l11.4-11.4c5.3,5.1,11.4,9.1,18.1,12l1.2-2.1c-6.5-2.7-12.5-6.7-17.6-11.6l12.6-12.6
	c4,3.8,8.7,6.7,13.9,8.5l1.2-2.1c-5-1.7-9.5-4.5-13.4-8.1l11.4-11.4c3.6,3.2,8.2,5.2,13.1,5.4v16.2c-3.8-0.1-7.5-0.8-11.1-2
	l-1.2,2.1c4,1.4,8.1,2.2,12.3,2.3v17.8c-7.3-0.1-14.4-1.6-21.1-4.5l-1.2,2.1c7.1,3,14.6,4.6,22.3,4.8v16.1
	c-10.6-0.2-20.9-2.5-30.3-6.8l-1.2,2.1c9.8,4.5,20.4,6.9,31.5,7.1v17.8c-14.2-0.2-27.8-3.4-40.3-9.3l-1.2,2.1
	c13.1,6.3,27.6,9.6,42.6,9.6c15.7,0,30.9-3.7,44.6-10.6l-1.1-2.2c-13.1,6.6-27.6,10.2-42.2,10.4v-17.8c12-0.2,23.6-3.1,34.1-8.3
	l-1.1-2.2c-10.2,5.2-21.5,7.9-33,8.1V279c9-0.2,17.7-2.3,25.6-6.3l-1.1-2.1c-7.6,3.8-16,5.9-24.5,6v-17.8c5.7-0.2,11.2-1.5,16.3-4
	l-1.1-2.1c-4.8,2.3-9.9,3.6-15.2,3.8v-16.2c4.8-0.3,9.5-2.2,13.1-5.4l11.4,11.4c-2.7,2.6-5.9,4.7-9.3,6.4l1.1,2.1
	c3.6-1.8,6.9-4.1,9.9-6.8l12.6,12.6c-4.2,4.1-9,7.4-14.3,10.1l1.1,2.1c5.5-2.7,10.5-6.3,14.9-10.5l11.4,11.4
	c-5.6,5.4-11.9,9.9-18.9,13.4l1.1,2.2c7.2-3.6,13.7-8.3,19.5-13.9l12.6,12.6c-7.1,6.9-15.1,12.6-23.9,17.1l1.1,2.2
	c9.4-4.7,17.9-10.9,25.4-18.4C397.7,281,404.2,272,409,262L409,262z"/>
<path class="st0" d="M325.7,196l-0.6,0l0,0.7l0.6,0L325.7,196z M324.2,195h0.8v0.6h-0.8V195z M322.8,194.8l0.7,0.1l0.1-0.6l-0.7-0.1
	L322.8,194.8z M322.2,194.6l-0.7-0.1l0.1-0.6l0.7,0.1L322.2,194.6z M316.4,193.8h0.8v0.6h-0.8L316.4,193.8z M314.7,195l0.7,0.1
	l0.1-0.6l-0.7-0.1L314.7,195z M314.7,196l-0.8-0.2l0.1-0.6l0.8,0.2L314.7,196z M313.3,196.7l-0.1-0.6l0.6-0.1l0.1,0.6L313.3,196.7z
	 M234.7,258.3v-0.5h-0.5v1h0.8v1.3h0.6l-0.1-1.5L234.7,258.3z M242.2,267.3l-1.1-1l-0.8-1.1l-0.4-0.9l-0.7-1.8l1.5,0.7l0.5,1.4
	l0.7,0.5l0.7,1.5L242.2,267.3z M262.9,294.4l-0.1-0.9l-0.8-1.2l1.2,0.2l1.3,1.1l0.5,1.3l-0.7,0.4l-0.4-0.6L262.9,294.4z
	 M316.9,202.5h-1.1l-0.2-2.2l0.6-0.4v-1.1h-3.5l-0.1-1.1l0.5-0.3l-0.8-0.3l-0.6,0.8l-0.2,0.9l-1,0.2v0.5h-0.7v1.3l-2.8,2.3l-5.6-0.2
	c-0.4,0.9-1.4-0.1-1.4-0.1c-0.2-0.6-1.6,0-1.6,0c0,1.1-1.9-0.5-1.9-0.5l-3.5-2.5c-2-1.8-5,0.5-5.1,1c0.1,1.4-2.3,0.3-2.3,0.3
	s-2-0.6-2.3,0.2c-0.3,0.8-1.6,0.6-1.6,0.6l-0.2,0.4l-1,0.2l-0.2,0.6l-1.2,0.2l3-0.1c0.8-0.1-0.3,1.7-0.8,1.6L280,205l-0.5,0.5h-1.3
	l-0.6,0.8l-1.9-0.1c0,0-1.1,0.9-1,1.2c0.1,0.3-0.2,1.2-0.5,1.2s-0.9,0.9-0.7,1.2s-0.6,1.3-0.6,1.3l-0.2,1l-0.6,0.2v2.7l-1.2,0.8v1.2
	l-1.8,1.9l0.2,1.6l-1.5,1.6l0.2,1.6l-0.9,0.3l-0.2,0.7l-0.4,2.1l1,0.1c0.5-0.2,0.4,1.3,0,1.5c-0.4,0.2-1.5,0.6-0.9,1
	c0.6,0.4-1.6,0.3-1.6-0.3c0-0.6-1.2-1.1-1.5-0.9c-0.3,0.2-0.8-0.9-0.8-0.9c-1.1-1.1-4.5,0.1-4.5,0.1l-0.5,1.6c-1.1,0.2-1.8,2-1.8,2
	c-0.9,0.3-1.6,1.4-1.3,1.7c0.3,0.3-0.5,0.4-0.5,0.4v2.2l-0.5,0.7l0.1,2.4c0.6,0,0.5,1.1,0.5,1.1c-1,0.1-0.8,1.4-0.8,1.4l-2.1,0.7
	l-0.4,0.6l-2.6-0.1l-0.7,0.7l-0.7-0.7h-5l-0.2-0.5l-1-0.2l-0.1-1.1l-1.5,0.1l-0.3,0.6l-1.6,0.1c0.1,1-1.6,2.5-1.8,2.1
	c-0.2-0.4-1.3-1.5-0.8-1.7c0.5-0.2,1.8-0.4,1.8-0.4v-0.7l-3.7-0.1l-0.4,0.6l-1.5,0.1v1.6l-0.7,0.2c-0.5,0.3,0.1,1.4,0.1,1.4
	c0.7,0.7-0.1,1.8-0.1,1.8c-0.6,0.6,0.5,1.7,0.5,1.7c0.8,0.2-0.5,0.8-0.5,0.8c0.2,1,0.8,1.3,0.8,1.3c-0.6,1,0.4,1.5,0.4,1.5l0.1,1.7
	l0.7,0.4v1.1l0.4,0.7h1.6l-0.1-2.5c-1.4-1.6,1.2-2,1.3-1.4c0.1,0.6,1.2,0.9,1.2,0.9c0.2,1.5,1.9,2.4,2.4,0.9
	c0.5-1.5,0.9-0.6,1.2,0.1c0.3,0.7,2.2,2.4,2.2,2.4h1.5l0.2,1.4c1.7-0.1,2.2,0.1,2.9,2.4c0.7,2.3,2.6,2.9,2.6,2.9l1.4-0.1
	c0-1.2,1.4,0.2,1.4,0.8c0,0.6,2.7,2.9,2.7,2.9l2.7,0.6l2.5,2l1.9-0.2h0.8c0.5-1.7,2.9,0.1,3.1,0.7c0.2,0.6,1.8,1.6,2,1.1
	c0.2-0.5,1.3-0.2,1.5,1.3c0.2,1.5,0.9,1.2,0.9,1.2l5.7-0.1l2-1.7l5.1-0.1c2.6-0.1,1-3.6,0.5-3.6c-0.9-0.7,0.3-3.6,0.3-3.6l-7.3-6.8
	c-1.7,0-0.2-2.4-0.2-2.4c1.3-0.8-0.3-2.1-0.3-2.1c0.2-1.2-0.7-2.6-0.7-2.6c-1.8-1.2-1.3-3.5-1.3-3.5V245c-1.5-1.4,0.6-1.6,0.6-1.6
	c0.7-1.2-0.5-2.1-0.5-2.1l-0.1-1.3l-1.6-0.2l-0.2-4.8l-3.6-5.2c-0.7-0.2-0.2-1.4-0.2-1.4c0.9-0.5-0.2-1.7-0.2-1.7l-0.1-2.2l2.1-0.2
	l0.5-0.8h1l-0.1-2.6c0.5-1.3,1.7-0.6,1.7-0.6l1.4,0.1l0.8-1.5l0.2-1.2l-1.1-0.1c-1.2-0.7-0.6-3.3-0.6-3.3c1.9-2.8,4.1-1.2,4.1-1.2
	l1.4-0.1c2.1,1.4,0.2,4,0.2,4c-0.4,0.6-0.2,2.5-0.2,2.5l0.5,3.2l-1.3,1.1c-1.1,0.6-1.1,2,0.1,2.3c0.8,0.1,0.5,2-0.7,0.7
	c-1.8,0,1,1.6,0.2,1.2c1.8,0.9,1.4-0.8,1.4-0.8l2.4-1.9c0.9-0.7,2.5,1.5,2.5,1.8s4,0.1,4,0.1c1.1,0.7,1.5,2.5,1.5,2.5
	c1.1-1.4,3.4-0.1,1.7,0.7c1.6,1,1.6,1.9,1.6,1.9c1.3-0.4,1.3,0.6,1.3,0.9c0,0.3,0.4-1.5,0.4-1.5c-1.5-1.1,2-1.5,1,0.5l-0.6,0.9
	l1,0.8l0.1,2.3c2.2-0.2,1.6-2.9,1.6-2.9l1-0.2c0-0.9,0.7-0.4,0.7-0.4c-0.7-3.4,1.6-4,1.6-4c1.3-0.3,1.4-3,1.4-3
	c-0.9-0.4-0.4-1.8,0.6-0.6c1,1.2-0.6-2.4-0.6-2.4l-0.8-0.7l-1.1-0.1l-0.1-1.1h-1.8l-0.3,1.4l-0.7,0.2l-0.2-0.4l-0.3,1.1H296
	l-0.1-1.2l1.1-0.3l0.4-0.6l0.3-1.6h1.3l1.7-0.5c0.1-1.7,1-1.3,1-1.3l0.6,0.5l0.9,0.7l0.1,0.6l-0.6,0.3l-0.1,0.8l0.3,1.1h0.8
	c0.3-1.6,2.4-1.6,3-0.6l0.6-1.4c-1.4-0.7,0-1.8,0.4-1.3c0.4,0.5,1.3-1.3,1.3-1.3s0.7,0.9,0-0.3c-0.7-1.2,0.5-1.8,0.5-1.8
	c-0.2-1.2,1.3-1,1.3-1l0.1-1.6l-1.4-0.1c-0.3,1.4-1.5,0.2-0.9-0.1c0.6-0.3,1.2-0.9,1.2-0.9v-1l0.6-0.2l0.1-1h1.5l1.3-0.6l0.3-0.5
	l1.4-0.1l2-1.8l-0.2-0.8c-1.2,0,0-0.9,0-0.9L316.9,202.5L316.9,202.5z"/>
<path class="st0" d="M276.7,222.6l-1.8-0.2l0.1,0.7h0.5c0.8,1.4,0.1,4.9,0.1,4.9s-1.2,0.1-1.4-0.5c-0.2-0.6-0.7,1.3-0.3,1.6
	c0.4,0.3,1.8,0,1.9,1.1c0.1,1.1,0.9-0.7,0.9-0.7L276.7,222.6L276.7,222.6z"/>
<path class="st0" d="M276.7,231.2l0.6-0.1l0.1-0.7l-1.5,1l-1-0.6v2.4l1.6,2.1l0.6-1.4l0.2-0.9l-0.7-0.3L276.7,231.2z M277.5,237.5
	v-1l-0.7,0.1l-0.1,0.8L277.5,237.5z M276.6,242.4v-0.7l-0.8,0.1v0.7L276.6,242.4z M277.8,239.3c0.2,0,0.4-0.2,0.4-0.4
	s-0.2-0.4-0.4-0.4c-0.2,0-0.4,0.2-0.4,0.4c0,0,0,0,0,0C277.4,239.1,277.6,239.3,277.8,239.3z"/>
<ellipse class="st0" cx="278.5" cy="241" rx="0.4" ry="0.4"/>
<ellipse class="st0" cx="278.5" cy="229.4" rx="0.4" ry="0.4"/>
<path class="st0" d="M312.4,214.5l-1.1-0.1l-0.2,0.5h-0.5l-0.1,0.8h0.6l0.1,0.6l-0.4,0.4l-0.2,0.5l-0.8,0.2l-1.8,1.7l-0.1,0.8
	l-0.5,0.7l-0.6,1.5l-2.1,0.1l-0.4,1.8l0.3,1.5l1.8,0.7l0.2-1l0.6-0.3l0.1-1l0.4-0.7l0.6-0.7l0.2-0.8l1-0.6l1.2-0.2l0.5-0.6l0.2-1.2
	l0.1-0.9l0.4-0.6l1.2-0.5v-1.9h-0.6L312.4,214.5z M315.2,221.4v-1.4l-0.2-1.3l-1.5-0.7l-1.1,1l-0.2,1.4v0.9l-1,0.2l-0.2,2.7
	l-0.8,0.3l0.1,1l-1.1,0.3l-1.1,0.3l-0.2,1.3l-0.8,0.5l-0.4,1.2l-0.5,2.9c0,0,0.9,1.7,1.4,0.9c0.5-0.8,1.3-0.9,1.3-0.9l0.3-0.7
	l2.7,0.1c0.2-1.1,1.5-0.7,1.5-0.2s1,0.1,1,0.1l0.7-1.1h1.1l0.1-1.2l0.5-0.3v-1.8c1.6-0.5,1.4-2,1.4-2l0.4-0.5l-0.2-0.7
	c-0.8-0.3-0.4-1,0.1-0.8c0.5,0.2-0.7-0.9-0.7-0.9c-0.6,0.5-1.1-0.6-1.1-0.6L315.2,221.4L315.2,221.4z M316.8,233.6
	c-0.1,1.2-1.6,1.6-1.6,1.6l-1.1-0.3l-0.6-0.5l-0.1-1.4l0.9-0.1l0.2,0.6L316.8,233.6L316.8,233.6z M322.2,227.1
	c0.2,0.9,0.2-1.4,0.6-1.3c0.4,0.1,0.1-1.4,0.1-1.4l-1.8,1.3C322,225.8,322.1,226.7,322.2,227.1L322.2,227.1z M327.5,221.9
	c0.4,0.9,0.3,2.2,1.8,3.2c0.5,0.3-0.3,1-0.8,0.7c-0.5-0.3-1.9-2.5-1.9-2.5V222C326.9,221.2,327.3,221.5,327.5,221.9L327.5,221.9z
	 M327.8,252.9l0.3,0.5l0.7-1.1l-0.6-0.2l-0.7,0.5L327.8,252.9z M325,251v1.2 M339.4,249.6l0.8-0.5l-0.3-0.5l-0.8,0.5L339.4,249.6z
	 M368.3,270.7l0.9,0.4l0.1,1.7c1.2,1.2,5.1,0.2,5.1-0.1c0-0.3-0.2-3.7-0.2-3.7l-0.5-0.5l-0.1-2.5c0.4-1.3-1.9-3.2-2.1-2.8
	c-0.2,0.4-1.5,0.1-1.5,0.5c0,0.4-0.8,2.4-0.4,3.1c0.4,0.7-0.3,0.7-0.4,1.4C369.1,268.8,368.1,270,368.3,270.7L368.3,270.7z
	 M366.1,266.6c-0.2,0.8-0.9,1.2-1.3,0.9c-0.4-0.3,0.5,0.5,0.7,0.9c0.2,0.4,0.8,0.4,1,0c0.2-0.4,0.1-1.3,0.3-1.7
	C367,266.3,366.2,266.2,366.1,266.6L366.1,266.6z M361.4,248h0.7v1.9h-0.7L361.4,248z M371.8,228.5c-0.4-0.6,2-1.6,2.4-0.4
	c0.4,1.2,0,1-0.4,0.9C373.4,229,372.4,229.4,371.8,228.5L371.8,228.5z M373.9,215l-0.1,0.6l1.1,0.2l0.1-0.6L373.9,215z M369.4,216.5
	l0.8,0.5l0.1,0.1l0.1-0.1l0.6-0.3l0.1,0.2l0.6-0.2l-0.2-0.5l-0.1-0.3l-0.3,0.2l-0.7,0.4l-0.6-0.4L369.4,216.5z M374.9,192.1h-1.5
	c0,0,0.5,0.2-0.9-1.1c-1.4-1.3-2.3,0.3-2.3,0.3l-1.6,0.2v1.6l-0.8,0.3l0.1,1l1.1-0.1c0,0,0,1.2,0.3,0.7c0.3-0.5,2.8,0.1,2.6,1.3
	c-0.1,0.5,2.5,1.8,2.2,3.4c1.3,0.2,1,1.5,1,1.5l1.7,0.2l0.5-1l0.5,0.1V200l-1.1-0.3l-0.2-3.2l-0.7-0.5l0.2-0.8l-0.8-0.3l0.4-1.3
	L374.9,192.1L374.9,192.1z M379.2,202.4l-0.8-0.1l-1.8,0.3l-1,1.9c0,0,0.5,0.3,0.9,1c0.4,0.7,0.6,4.9-0.6,5.6
	c-1.2,0.7,0.1,0.3,0.1,0.3l-0.2,2.2c0.3,1,0.8,0.5,1.1,0c0.3-0.5,0.6-0.6,1-1.1c0.4-0.5,1-1.4,1.1-2.1c0.1-0.7,0.6-1.8,0.3-2.1
	c-0.3-0.3,0.3-1.7,0.3-1.7s0.4-0.8,0-1.6c-0.4-0.8,0.1-1.7,0.4-2.1L379.2,202.4L379.2,202.4z M380.5,206.6l0.1-0.8l0.6,0.1l-0.1,0.8
	L380.5,206.6z M380.4,209.4l-0.5-0.3l0.3-0.6l0.5,0.3L380.4,209.4z M379.5,201.3l-0.4-0.9c0,0,0-0.8,0.2-1.2
	c0.2-0.4-0.4-0.8-0.7-0.9c-0.3-0.1-0.2-0.9-0.3-1.3c-0.1-0.4-0.8-0.7-0.8-0.7s-0.2-1.5-0.2-1.8c0-0.3-0.9-0.7-0.6-1s0.5-0.7,0.8-0.9
	c0.3-0.2-0.3-1.6,0.2-1.3c0.5,0.3,0.5,0.8,0.7,1.2c0.2,0.4-0.1,1.8,0.4,2.1c0.5,0.3-0.1,1.3,0.7,1.3c0.8,0,0.3,1.9,0.3,1.9
	s-0.2,1.4,0.3,1.5c0.5,0.1,0.2,2.5,0.2,2.5L379.5,201.3L379.5,201.3z M373.1,184.9c0.3,0.4,0.9,0.7,0.9,1.1c0,0.4-0.2,0.7,0.4,0.8
	c0.6,0.1,1-0.1,1.2,0.4c0.2,0.5,0.2,1.3,0.1,1.7c-0.1,0.4,0.1,1,0.6,1c0.5,0,0.6,0.1,0.6,0.4s0.6-1.1,0.6-1.1
	c-0.5-0.4-0.9-1.3-0.9-1.3s-0.5-1.4-0.5-1.6c0-0.2-0.7-0.4-1-0.5c-0.3-0.1-0.8-1-0.8-1L373.1,184.9L373.1,184.9z M374.1,184
	c-0.3-0.4-0.6-0.7-1-0.9c-0.4-0.2-0.7-0.4-1.1-0.4c-0.4,0-0.7-0.3-0.6-0.7c0-0.1,0-0.2,0.1-0.2c0.2-0.5-0.3-0.7-0.3-1.1
	s0.3-0.4,0.8-0.1c0.5,0.3,0.4,0.4,0.8,0.9c0.4,0.5,0.6,1,1,0.9c0.4-0.1,0.7,0.9,1.1,0.6c0.4-0.3,0.3,0.7,0.3,0.7L374.1,184
	L374.1,184z M362.4,195.4c0.5,0.6-3,0.4-3,0c0-0.4,0.3-1.8,1.2-1.5c0.9,0.3,1-1.8,1-1.8s-0.8,0.1-0.1-0.3c0.7-0.4,0-1-0.3-1.3
	c-0.3-0.3-0.6-0.8-0.6-0.8h1.4c0.6-0.4,0.8-2.3,0.8-2.3c1.2,0.4,1.8-0.4,1.8-0.4s0.2,0.6,0.6,1.1c0.4,0.5-1,0.7-0.5,1
	c0.5,0.3,0.7,1.2,0.5,1.5c-0.2,0.3-1.3,0.1-1.3-0.3c0-0.4-0.4,0.5,0,1c0.4,0.5-0.5,1.2-0.7,1.2s-1.5,0.2-0.4,0.8
	c1.1,0.6,2.3,0.3,2.3,0.3s0.9-0.1,1.2,0.4c0.3,0.5-0.1,0.6-0.6,0.6s-2.9-0.2-2.9-0.2S362.1,195.1,362.4,195.4L362.4,195.4z
	 M356,196.4c0.5-0.1,1.7-0.2,1.9,0.1c0.2,0.3-0.7,0.7-0.7,0.7l-1.2,0.2C355.6,196.9,355.5,196.5,356,196.4L356,196.4z M368.9,187.9
	c0.8-0.4,2.5-0.4,2.4-1c-0.1-0.6,1-0.8,1-0.8l0.3,1.2l0.9,0.6l0.1,1.1c0,0,0.3-0.2-0.8,0.1c-1.1,0.3-0.4,0.8-0.4,0.8L370,190l-0.3-1
	L368.9,187.9L368.9,187.9z M365,182.4c0.6,0-0.2,2.3,1.4,2.1c1.6-0.2,0.1,0.7,1.3,0.8c1.2,0.1,0.9-0.9,1.3-1.6
	c0.4-0.7,0.2-1.1-0.5-1.3c-0.7-0.2-0.7-0.2-0.9-1c-0.2-0.8-1-1-1-1l-0.3-1.2L365,180l-1.3,1.7C363.7,183,364.4,182.4,365,182.4
	L365,182.4z M367.6,190.9l0.3-0.6l0.5,0.3l-0.3,0.6L367.6,190.9z M366.6,190h0.6v0.7h-0.6V190z M367.1,176.5l0.1,0.9l-0.6,0.1
	l-0.1-0.9L367.1,176.5z M365.4,185.9h0.6v0.5h-0.6V185.9z M363.8,185.9l-0.1-0.6l1-0.1l0.1,0.6L363.8,185.9z M355.6,195.7l-0.5-0.2
	l0.3-0.7l0.5,0.2L355.6,195.7z M352.5,193.8l-0.1-0.6l1-0.1l0.1,0.6L352.5,193.8z M335.1,193.6l-2.2,0.1l0,0.6l2.2-0.1L335.1,193.6z
	 M331.5,194.5l-0.2-0.9l0.6-0.1l0.2,0.9L331.5,194.5z M331.1,195.1l-0.2-0.6l0.3-0.1l0.2,0.6L331.1,195.1z M336.1,193.4l-0.1,0.7
	l1.1,0.1c0,0,0.5,0.4,0.5,0.7c0,0.3,0.7,0.6,1.1,0.6c0.4,0,1.5-0.8,1.5-0.8s0.5-1.4,0.1-1.3c-0.4,0.1-1.2,0.7-1.3,0.1
	c-0.1-0.6-1.3-0.3-1.3-0.3L336.1,193.4L336.1,193.4z M341,192.3c0,0.3-0.2,0.7,0.4,0.8c0.6,0.1,1.7-0.4,1.8,0.2
	c0.1,0.6,0.1,1,0.9,1.3c0.8,0.3,1.3,0.4,1.9,0.4c0.6,0,1.9-0.2,1.9-0.2s1.4,0.2,1.7,0.5c1.1,1.1,1.8,1.4,2.1,0.9
	c0.3-0.5-0.1-1.6-0.2-2c-0.1-0.4-1.5-2.3-2-1.9c-0.5,0.4-0.6,0-1.5,0.3c-0.9,0.3-2.8,0.1-2.9-0.3c-0.1-0.4-1.5-0.6-1.5-1
	s-1-0.9-0.9-0.3c0.1,0.6-0.7,0.9-0.9,0.7C341.6,191.5,341,192.3,341,192.3L341,192.3z M364,179.3l0.7-2.2c-1-0.2-0.8-1.3-0.8-1.3
	c-0.1-0.9-1.5-1.9-2-1.6c-0.5,0.3-0.3-2.1-0.3-2.1s0.9-0.6,1.3-0.3c0.4,0.3-3.4-5.1-4.2-4.6c-0.8,0.5-2.6-0.5-2.5-1.4
	c0.1-0.9-3.6-3.9-3.6-3.9s-1.2-0.8-1.4-0.2c-0.2,0.6-0.6,1,0,1.3c0.6,0.3,0.5-0.5,1.2,0.2c0.7,0.7,2,1.6,1.5,2.2
	c-0.5,0.6-1.1,0.8-1.1,0.8l0.7,0.8h1.1l0.2,1.7c0,0,1.2,0.6,1.5,1.3c0.3,0.7,0.3,1.1,0,1.5c-0.3,0.4-0.9,1.1-0.8,1.8
	c0.1,0.7,0.9,1,0.9,1l0.8,0.1l0.6,0.3v1.3c0.8-0.2,2.1,0.9,2,1.6c-0.1,0.7,0.2,0.3,1.2,1c1,0.7,0.7,0.8,1.4,1.3
	C363.1,180.6,363.7,180.3,364,179.3L364,179.3z"/>
<path class="st0" d="M347.5,165.6c-0.1-0.4-0.3-1.8,0.3-1.7c0.6,0.1,0.2,0,0.9,0.3c0.7,0.3,0.8-0.5,0.8-0.5h1.1l1.4,1.1l-0.2,0.9
	l-1,0.1c-0.5-0.8-1.5-0.5-1.3,0.2c0.2,0.7-0.5,2-0.9,2.1c-0.4,0.1-1.7,0.1-1.6-0.5C347.1,167,347.5,165.6,347.5,165.6L347.5,165.6z
	 M346.7,162.8V162c0,0-0.1-0.8-0.6-0.8c-0.5,0-1.4-0.6-1.2-1c0.2-0.4-1.7-0.8-1.7-0.8s-1.7-1.6-1.1-1.4c0.6,0.2,0.3-0.7,0.3-0.7
	s-1.2,0.2-1.5,0.1c-0.3-0.1-0.2-1-0.2-1s-1.2-0.3-1.2,0c0,0.3,0.4,0.3,0.6,0.9c0.2,0.6,0.1,1.6,1,1.8c0.9,0.2,1.1,0.4,1.2,0.8
	c0.1,0.4,1.2,0.5,1.2,0.5l0.8,0.4L346.7,162.8L346.7,162.8z M336,152.5l-0.3-0.8l-0.8-0.2v0.9L336,152.5z M335.7,148.3
	c-1-0.8,1.4,0.6,1.4,0.6c0.8,0,1.3,0.6,1.3,0.9c0,0.3,1.1,0.2,1.1,0.2l0.1-0.7l-0.8-1l-0.7-0.5c0,0-1.1-0.1-1.1-0.4
	C337,147.1,336.1,148.6,335.7,148.3L335.7,148.3z M354,148.9c-0.3,0.9-0.4,2.1-0.9,2.1s-0.3,1.3-0.3,1.3s1.3,0,1.7,0.1
	c0.4,0.1,0.4,1.1,0.4,1.1c1.5-0.1,2.1,1.9,1.9,2.4c-0.2,0.5,0.6,0.5,0.6,0.5s0,1.6-0.2,2c-0.2,0.4,1.3,0.7,1.7,1.3
	c0.4,0.6-0.2,2.6-0.5,2.7c-0.3,0.1,0.8,0.4,0.7,0.9c-0.1,0.5,0.3,0,0.4,0.8c0.1,0.8,0.3,2.5,0.3,2.5l1.4,0.1
	c0.2-1.3,2.8-1.4,3.2-1.2c1.7,0.6,3,3.2,3,3.8c0,0.6-1.1,0.7-1.1,0.7l0.2,2.9c1.7,0.5,3.1,2.9,2.9,3.3c-0.2,0.4,1.2,0.3,1.2,0.3
	c0.2-1.8,1.9-1.2,2-0.6c0.1,0.6,0.4,1.9,0.4,1.9l0.5,0.9l0.7,0.7l1.1-0.1l0.3,0.6l1.3,0.2c0,0,1.1,1.2,1.2,1.5
	c0.1,0.3,1.6,0.2,2,0.3c0.4,0.1,1,0.4,1.1,0.9c0.1,0.5,0.7,1.3,0.7,1.3s1.2,0.3,1.3,0.7c0.1,0.4,0.6,1.3,0.6,1.3l1,0.8l0.1,0.9
	l1.1,0.1l0.3,1.2l1.8-0.1l1-0.7c1.3-0.7,2.2-1.6,2.3-2s0.3-1.9,1.3-1.6c1,0.3,0.3-2.2,0.3-2.2s-1.4-1-1.3-1.5
	c0.1-0.5-1.4-1.5-1.3-1.9c0.1-0.4-1.3-1.2-1.2-1.6c0.1-0.4-0.7-1.5-0.7-1.5l-1.5-1.4l-0.2-0.9l-1.2-0.1l-2.4-2.9l0.1-0.8l-0.7-0.1
	v-1.1l-0.7-0.4l-1.1-0.1l-2.2-2.4l-0.2-1.1h-1.1l0.2-2.1c0.7-0.9,0.3-2.6,0.3-2.6s-1.4,0.7-2.1,0.4c-0.7-0.3,0.3-1,0.3-1v-0.8
	l-0.6-0.6c0,0-1.7,0.2-1.8-0.1c-0.1-0.3-0.4-1.6-0.4-1.6l-0.1-1.7l-0.7-0.3l-0.1-0.6l-1.1,0.1v-1.2l-0.6-0.2l-0.6-0.3l-0.1-1.2
	l-2.2-0.1l-0.7-1l-0.8-1.2l-2.5-0.2l-0.6-0.6l-1-0.2l-0.7-0.3l-0.3,0.5l-1.9,0.1l-0.1,0.6C358.1,149,354.1,148.6,354,148.9
	L354,148.9z M364.5,146.2c-0.2-0.8,2-1.5,2.5-0.9c0.5,0.6,1.9,0.7,2.1,3.7c0.1,1.1-1.8-1.1-1.8-1.1l-1.5-0.5
	C365,147.3,364.6,146.8,364.5,146.2L364.5,146.2z M335.2,147.5l-0.5-0.2l0.4-0.9l0.5,0.2L335.2,147.5z M330.1,137.5l-1.3-1.3v-1.1
	l-0.4-0.4l-0.4-1.4l-1.3-0.4l-1.3,0.5l-1.4,0.9l-1.5,0.2l-0.8,0.9l3.2,0.3l0.6,1l2.3,0.2l1.5,1.5
	C330.6,138.9,330.9,138.3,330.1,137.5L330.1,137.5z M329.9,132.6c-0.2-0.9-1.5,1.1-0.2,1.5c1.3,0.4,2.6,0,2.6,0l0.3-0.6l5,0.1
	c0.4-0.4,0.6-1,0.6-1s1.2-0.4,1.7-0.2c0.5,0.2,0.1-1.4-0.4-1.2c-0.5,0.2-1.5,0.1-1.5,0.1h-1.8c-0.1-0.7-1.7-0.4-1.8,0
	c-0.1,0.4-0.7,0.5-0.7,0.5l-2.3,0.2C331.2,132.6,330,133,329.9,132.6L329.9,132.6z M320,149.7c1.5,0.5,2.1,0.1,2.2-0.3
	c0.1-0.4,0.2-0.5,0.8-0.6c0.6-0.1-0.1-1.3-0.7-1.2c-0.6,0.1-1.2-0.2-1.3-0.7c-0.1-0.5-1.1-1.8-1.2-0.8c-0.1,1-0.7,1-0.6,1.7
	C319.3,148.5,319.6,149.5,320,149.7L320,149.7z M308.5,150.8c-0.1-0.4,2-0.4,2.3-0.1c0.3,0.3,0.1,0.8,1,0.8s0.5,0.6,0.4,0.9
	c-0.1,0.3-1.1,0.2-1.2-0.1c-0.1-0.3-1.6-0.4-1.6-0.4S308.6,151.3,308.5,150.8L308.5,150.8z M342.5,129.1l-0.8,0.6l-0.5-0.5l-0.4,0.4
	l0.7,0.7l0.2,0.2l0.2-0.2l1-0.8L342.5,129.1z M337,127.3l-0.6-0.4l-0.3,0.5l0.8,0.5l0.2,0.1l0.2-0.1l1.1-0.7l-0.3-0.5L337,127.3z
	 M333.7,148.1l-0.1,0l-1-0.1l-0.1,0.6l0.9,0.1l0.6,1l0.5-0.3l-0.7-1.1L333.7,148.1z M300.8,176.3l0.1,1.1h1.5c0.6,0-0.5-0.7-0.5-0.7
	S300.7,176.8,300.8,176.3L300.8,176.3z M302.7,176.3l0.4-0.5l0.6,0.5l-0.4,0.5L302.7,176.3z M284.5,157.4l0.4-0.4l0.6,0.6l-0.4,0.4
	L284.5,157.4z M313.5,287.7l-1-0.5l-0.3,0.5l0.6,0.3l-0.2,0.2l0.4,0.4l0.5-0.5l0.3-0.3L313.5,287.7z M305.7,280.4l-0.4-0.5l-0.6,0.5
	l-0.3,0.3l0.3,0.2l0.7,0.5l0.3-0.5l-0.4-0.3L305.7,280.4z M379.9,261.2c-0.1-0.5-0.7-0.7-0.8-0.8l-0.2,0.6v0c0,0,0.1,0.1,0.2,0.1
	l0.1,0.5c0,0.1-0.1,0.1-0.1,0.2l0.4,0.4C379.9,261.9,380,261.5,379.9,261.2L379.9,261.2z M380.8,259.3l-1-0.1l0.1-0.9l1,0.2
	L380.8,259.3z M403.9,251.4c0.4-0.3,1-0.8,0.9,0.4c-0.1,1.1-0.5,0.8-0.9,1.1C403.6,253.3,403.3,251.8,403.9,251.4z M409,247.1
	c0,0,0-0.1,0-0.1c0-0.2-0.1-0.4-0.2-0.6l-0.5,0.3c0.1,0.1,0.1,0.3,0.1,0.4c0,0.2,0,0.4,0.2,0.5c0.1,0.1,0.2,0.1,0.4,0.1l-0.1-0.6
	C408.9,247,409,247.1,409,247.1L409,247.1z M407.7,247.6c0.2,0.6,0.4,1.2,0.4,1.2l0.6-0.2c-0.1-0.4-0.3-0.8-0.4-1.2L407.7,247.6
	L407.7,247.6z M405.5,250l-0.6-0.1c0,0.5,0.1,1.1,0.5,1.2l0.1-0.6c0,0,0,0,0,0C405.5,250.5,405.5,250.2,405.5,250L405.5,250z
	 M402.9,237.9c0-0.2-0.2-0.4-0.3-0.4c-0.4-0.2-1.2,0.1-1.6,0.4l0.3,0.5c0.4-0.3,0.9-0.4,1-0.3c0,0,0,0,0,0L402.9,237.9L402.9,237.9z
	 M375.3,205.6c-0.4,0.4-1.3,0.6-1.3,0.6l-0.3,1.1l-0.5,0.4c0,0,0.1,0.3,0,1c-0.1,0.7-1,1.1-1,1.1l-0.4,0.5c0,0-2.4,0.1-2.7,0
	c-0.9-0.4-0.3-1.6,0.3-1.5c0.6,0.1-0.1-1.7-0.1-1.7l0.8-0.1c0,0,0.1-1.8,0.4-1.8c0.3,0-0.1-0.6-0.5-0.9c-0.4-0.3-0.9-1.3-1.3-1.2
	c-0.4,0.1-2,0-2,0l-0.3,0.6l-1.1,0.2c0,0,0.1,0.8-0.1,1c-0.6,0.7-2.9,2.2-1.9-0.3l0.3-0.6V203l-1.8-0.1c0,0-0.9-0.3-0.9-0.7
	c0-0.4-0.1-0.9-0.1-0.9l-2.1-2.3l-2.5-0.3l-0.2-0.5l-1.5-0.2c-1.8-0.9-3.4-0.1-3.1,1.4c0.3,1.5,0.8,2.1-0.2,2.1
	c-1,0-1.2-0.8-1.2-0.8s-0.8-0.3-0.8,0.1s-0.3,1.2,0,1.6c0.3,0.4-0.4,1-0.7,0.7c-0.3-0.3-1.1-1.2-0.9-1.5s-1.4-2.2,0.2-2.5
	c1.6-0.3-0.1-1.2,0.5-1.4l0.8-0.4h0.8l0.5-0.4l-1.3-0.2l-0.8-0.1l-1.5-0.1c-1.5,1-1.8,2.2-1.8,2.2c-0.8,1.5-2.7-0.6-2-1.4
	c0.7-0.8-2.2-0.1-2.7,0.3c-0.5,0.4-2,0.2-2,0.2c-0.3,0.9-1.7-0.1-1.3-0.7c0.4-0.6,0.4-1,0.4-1L337,196l-0.6,1.1
	c-1.4,0-1.8,0.8-1.5,1.3c0.3,0.5-0.4-0.1-0.6,0.6c-0.2,0.7,0.1,0.7,0.7,1c0.6,0.3-0.3,0.3,0.1,0.8c0.4,0.5,1.6,0,0.9,0.7
	c-0.7,0.7-2.1,0.4-2.1,0.4c-0.1,0.9-2,0.7-2.2,0.4c-0.2-0.3-1.7-2.1-1.7-2.1l-1.9-0.1c-0.2-1.4,0.9-0.7,1.3-1.8
	c0.4-1.1,0.6-2.9,0.6-2.9s-1.6-0.1-1.7,0.4c-0.1,0.5-1.1,0.8-1.1,0.8s-0.8,0.3-0.5,0.7c0.3,0.4-0.6,0.6-0.6,0.6s0.2,0.7-0.1,0.9
	c-0.8,0.8-2.8,0.1-3.1-0.2l-1.2-0.5l-1.2-0.8l-1.4,0.6l-0.4,0.4h-1.5l-0.1,1.2l2.7,0.3l0.2,2.5l-1.1-0.4h-0.7l-0.3-0.6l-0.6-0.1v2.2
	l0.6,0.5l0.5,0.5l1,0.1l0.2,1.2l2.5,0.1l0.3,0.5l1.5,0.1l2.9,2.9l-0.2,0.9l-0.5,0.3c0.2,0.7-1.3,0.3-1.3,0.3v0.6l0.7,0.1l0.7,0.4
	l1-1.7c1.1-0.7,1.6,0.3,1.7,0.9c0.1,0.6-0.5,0.5-0.5,0.5v1.4l0.6,0.2c1,1.2-0.4,1.9-0.4,1.9l-0.3,1c-0.3,0.9-1.4,0.7-1.4,0.7
	l-0.4,0.6l-1.2,0.3l2.4,0.3c0.2-0.8,0.8-1,1.1-0.6c0.3,0.4,0.3,1.1,0.3,1.1l0.6,0.1l-0.1,1.1l0.6,0.2v3.2l0.7,0.8
	c1.2-0.5,1.2,0.3,0.6,0.7c-0.6,0.4-0.2,2.2-0.2,2.2l-0.5,0.5v0.8l-0.6,0.4v1.1c-1-0.5-2.2-0.3-2.5,0c-0.9-0.6-2.8-0.4-2.8,0.1
	c0.6,0.8-0.7,1-0.7,1l-0.7,0.8c0.5,1-0.5,1.1-0.5,1.1v1.9l-1.2,1.1l0.1,2.6c0,0.7,1.5,0.8,1.8,0.4c0.3-0.4,1.5,0.8,1.5,0.8h0.9
	l0.2-1.8l-0.6-0.3v-2.9l1-1.1c1.2-0.4,0.8,2.6,0.8,2.9c0.1,1.1,0.6,1,1.1,0.8c1-0.4,0.2,1.1-0.6,1c-0.8-0.1-0.3,1-0.3,1l0.5,0.2
	l-0.9,0.7l-0.8,0.9l-1-0.3l-1.2-0.1l-0.4-0.7l-0.7-0.1l-0.1,1.4l-0.5,0.6l-1.2,1.2c1.6,0-0.2,1.1-0.6,1.1c0.9,0.3-0.1,1.2-2.4,0.5
	v0.7l-0.8,0.1l0.7,0.8l0.8,0.1l-0.3,1.7c0,1.3-3.3,0.4-3.6,0.1l-0.1,1.8l-0.6,0.1l0.1,1.2l-0.1,1.7l1.1-0.2v0.7l2.7,0.1l3.9-4.1
	l2.3-0.5c0.2-1,1.2,0.2,1.2,0.2c1-0.1,1.2,0.6,1.2,0.6l1.3,0.2c1.1,0.3,0.4,0.4,0.5,0.8c0.1,0.6,0.6,0.4,0.6,0.4l0.2-1.3l0.6,0.1
	l-0.6-0.7l-1.1-0.5l-1.2-0.5c-0.8-1.1,0.2-0.9,1-0.8h1.3c0,0,1.5,2,1.5,2.5c0,0.5,0.7,0.6,0.7,0.6l0.9-0.1l0.3,0.7h0.9l0.3,0.6h1.8
	l0.1-0.9l-1.7-0.3l-0.1-1l-1.2-0.3c-0.4-1.7,0.3-2.2,0.8-1.4l0.6,0.1l-0.2-1.5l0.7-0.2l-0.2-2.1l-0.6-0.2v-0.7l2.5,0.1
	c-0.2-1.3,0.1-1.9,0.1-1.9h0.7l0.1,0.5l3,0.3l2.2-2.5c-0.1-0.2,0.2-0.3,0-0.5c-0.3-0.3-0.7,0-1.2-0.3c-0.5-0.3,0-2-0.1-2.4
	c-0.1-0.4,1.7-1,1.4-0.1c-0.3,0.9,0,1.3,0,1.3c1.3-1.2,2.4,0.1,2.3,0.4c-0.1,0.3,0.7,0.6,1.2,0.3c0.5-0.3,1.1,0.9,0.9,1.5
	c-0.2,0.6-2,0.5-2.1-0.1c-0.1-0.6-0.4-0.4-0.6-0.1c-0.2,0.3-1.1,0.5-1.6,0.2c-0.1,0-0.1-0.1-0.2-0.2l-2.2,2.5l0.1,0
	c1.2,0.7,0.6,1.6,0.2,1.8c-0.4,0.2-1.1,0.2-1.1,0.2l-0.2,0.4l-2.6,0.2l-0.2,1c-1.3-0.2-1.8,1.2-1.5,1.9c0.3,0.7,0,1.3,0,1.3l1.1,0.5
	l1.4-0.4c0.2-1,1.1-1.2,1.9-1.8c0.8-0.6,2.1,1.1,1.7,1.9c-0.4,0.8-0.4,1.1-0.4,1.1l0.1,0.9l-1,0.4l-0.8,0.4l-0.1,0.5h-2.7l-0.5,0.5
	l-1.3,0.1l-0.4,0.6l-0.9,0.1c0,0-1.5,0.7-0.9,1.5c0.6,0.8-2.5,0.7-3.2-0.4c-0.2,1-1.3,0.1-1.3,0.1l-1.1-0.3l-0.1-1.5
	c-0.2-1-2.1-1-2-0.3c0.1,0.7-3.6,0.3-3.6,0.3l-1.2,0.6l-1.1,0.6l-0.1,0.5l-1.8,0.2l-0.8,0.4l-0.3-0.6h-0.8l-0.8,1.1
	c-2.1,0.1-4.1,1.3-3.9,1.8c0.2,0.5-0.8,1-0.8,1l-0.9,0.3l-0.6,0.9l-1.2,0.4l-0.2,2.1l-0.6,0.4v0.9l-0.7,0.2v0.5l-1,0.1l0.6,1.5
	l0.8,0.4c1.4,0.2,0.8,1.9,0.8,1.9l0.8,0.1l0.4,1.1l0.8,1.6c0.3,1.2,1.2,0.9,1.6,0.8c0.4-0.1,0.8,1.2,0.8,1.2l4,0.1
	c0,0-0.2,0.4,0.5,0.6c0.7,0.2,5.3,0.4,5.5,0.1c-0.2-0.9,2.5-1.1,3.6-0.3c1.1,0.8,2.6,0.3,2.6,0.3l1.5,1.8l1,2.2l1.7,0.5l1.2,0.3
	l0.4,1.7l0.9,0.1l0.3,1.1c1.1,0.8-0.3,2.5-0.3,2.5v2.2l0.8,0.4l-0.1,0.8l1.3,1.3l1.5,0.1l3.8,4l3,0.9l0.5,1.6l0.8-0.1l0.6-0.5
	l2.4-0.1l1.2-1.1l1.3-0.2L362,285l-1-0.6v-2.2c1.8-1.3,1.9-3.6,0.2-3.8c-1.3-0.2-0.7-1.5,0.5-1.7l0.7-0.3v-0.9l2.3-2.1v-1.6l-5-4.2
	c-2.2-0.8,0-5.7,1.5-5.6c1.5,0.1-0.1-7.5-0.1-7.5l-0.8-0.4l0.2-2.4h-1.1l-1.8,2.3l-0.5,1.6c-0.2,2.1-6.4,1.7-6.7,1.4
	c-0.3-0.3-2.4-1.2-2.4-1.2s-1.6-1.3-1.9-0.9c-0.3,0.4-1.7-0.5-1.7-0.2c0,0.3-1.3-0.7-1.3-0.7l-2-0.7l1.5-0.3l-0.3-1.2l2.6,1.3
	c0.3,0.4,1.6,0.3,1.6,0.3l0.4,0.5c0,0,0.8-0.1,1.3,0.5c0.5,0.6,3.1,0.1,3.1,0.1l0.7,0.6l1.1,0.4l3.1,0.1l0.1-1.9l0.6-0.6l-0.1-1.2
	l0.7-0.6v-1l0.6-0.2l0.1-2.2l0.5-0.1v-4.9l-1.5-1.4c-0.1,0.5-1.7,0.5-1.7,0.5s-0.4,0.7-0.7,0.7c-0.3,0,0.4,0.9,0.2,1.5
	c-0.2,0.6-1,0.6-1,0.6l-1.5,0.4l-0.4,0.5h-1.6l-0.2-1.3l1.8-0.5l1-0.5l0.5-1c0.1-1,1.3-0.9,1.3-0.9s2.3-1.9,2.4-2.8
	c0.1-0.9,0.9-3.4,2.3-3.4h2.6c1-0.4,0.7-1.7,0.7-1.7l1.3-0.2l0.2,0.7c0,0,1.8,0.2,2-0.1c0.2-0.3,0.6-1,1.1-0.7
	c0.5,0.3,2.1-0.7,2.1-0.7c0.1-0.7,2.6-0.4,2.6-0.4l0.3-0.9c0,0-1.7-2.3-2-2.3c-0.3,0-1.9-1.4-2.1-0.9c-1.6-0.4-1.5-2.6-1.5-2.6
	l-0.6-1.4c0-0.8-1.5-2.5-1.8-2.3c-1.5-1.1-0.4-2.4,0-2.5c0.4-0.1,1.4-1.5,1.4-1.5l0.5-1.4l1.7-0.5l0.2-1.3l-0.9-0.1
	c0,0,1-1.8,1.5-1.8s3.8,0,4.1-0.2c0.3-0.2,0.9-1.8,0.9-2.1c0-0.3,0.8-0.4,1.1-0.5c0.3-0.1,1-0.9,1.2-1.3
	C376.4,207.7,375.7,205.2,375.3,205.6L375.3,205.6z"/>
<path class="st0" d="M320,242.1c0.1-0.1,0.3,0.5,0.6,0.4c0.3-0.1,0.4,0.5,0.1,0.5c-0.3,0-0.3,0.4-0.3,0.5s0,0.5-0.2,0.8
	c-0.2,0.2-0.5,0.1-0.8-0.1c-0.3-0.2-0.4-0.2-0.8-0.2c-0.4,0-0.1,0.6-0.1,0.6s-1.6-0.1-1.3-0.3c0.3-0.2,0.6-0.3,0.4-0.5
	c-0.2-0.1,0-0.3,0-0.6s0.8-0.2,0.5-0.4c-0.2-0.2,0-1.1,0.4-0.6l0.2-0.5c-0.2-0.2-0.1-0.3-0.5-0.5c-0.5-0.2-0.1-1.1-0.1-1.1l0.1-0.6
	c0.1-0.8,1.6-0.8,1.7-0.2c0.1,0.7,0,1.1,0,1.1l0.5,0.1c0,0-0.1,0.5-0.5,0.5c-0.4,0,0,0.2-0.2,0.5L320,242.1L320,242.1z M315.1,242.8
	c0.2-0.5,0.7-2.4,1.3-1.8c0.6,0.6,1,0,1,0s0.3,0.3,0.1,0.9c-0.1,0.6-0.3,1.2-0.7,1.3c-0.4,0.1-0.7,0.3-1.1,0.4
	C315.3,243.7,315.1,242.8,315.1,242.8L315.1,242.8z"/>
<g>
	<g>
		<path class="st1" d="M634.9,238.4c0,48.9,0.4,97.8-0.2,146.7c-0.3,29.8-14.1,46.6-46.1,40.8c-111.2-20.2-219,4.9-326.6,26.6
			c-62.6,12.7-125,11.6-187.8,8.2C28.6,458.3,4.6,434.6,5,386.9c0.8-94.3,0.6-188.7,0.2-283C5.1,67.2,21.6,54.6,57.7,60
			C163,75.8,265.8,62.7,367.9,34.2c67.8-18.9,137.5-22.3,207.6-9.4c40.9,7.5,60.6,29.7,59.4,72.1c-1.3,47.1-0.3,94.3-0.3,141.5
			C634.7,238.4,634.8,238.4,634.9,238.4z"/>
	</g>
</g>
</svg>
