<svg version="1.1" id="Layer_1" xmlns="http://www.w3.org/2000/svg" x="0" y="0" viewBox="0 0 241 25" xml:space="preserve"><style type="text/css">.st0{enable-background:new}</style><title>JustTravelMoney.co.u</title><g id="Page-1"><g id="Blog-Post" transform="translate(-444 -1085)"><path d="M472 7h2.3v12.1c0 1.1-.2 1.9-.5 2.6s-.8 1.2-1.3 1.6c-.5.4-1 .7-1.6.8-.6.2-1.1.2-1.6.2-1.2 0-2.2-.3-3-.9-.8-.6-1.3-1.5-1.6-2.8l2.3-.5c.1.6.4 1.1.8 1.5.4.4.9.6 1.6.6.6 0 1-.1 1.4-.3.3-.2.6-.5.8-.9.2-.4.3-.8.4-1.2.1-.5.1-.9.1-1.4V7zm15.5 17h-2.2v-1.8c-.3.6-.7 1.1-1.4 1.5-.7.4-1.4.6-2.3.6-.6 0-1.1-.1-1.6-.3s-.9-.4-1.3-.8-.7-.8-.9-1.4c-.2-.6-.3-1.2-.3-2v-7.3h2.2v6.7c0 .5.1 1 .2 1.4.1.4.3.7.6.9.2.2.5.4.8.5.3.1.6.2 1 .2s.9-.1 1.2-.2c.4-.1.7-.4 1-.7.3-.3.5-.7.7-1.2.2-.5.2-1 .2-1.7v-5.9h2.2V24zm9-8.5c-.3-.3-.6-.6-.9-.8-.4-.2-.8-.3-1.4-.3-.5 0-1 .1-1.3.3s-.6.5-.6.9c0 .3.1.6.3.8s.5.4.8.5l.9.3c.3.1.6.1.9.2.5.1.9.2 1.3.4s.8.4 1.1.6c.3.3.5.6.7.9s.3.8.3 1.3c0 .6-.1 1.2-.4 1.6-.3.5-.6.8-1.1 1.1s-.9.5-1.5.6c-.6.1-1.1.2-1.7.2-.9 0-1.8-.1-2.5-.4-.7-.3-1.3-.8-1.9-1.6l1.6-1.3c.4.4.7.7 1.2.9.4.3 1 .4 1.6.4.3 0 .5 0 .8-.1.3-.1.5-.1.7-.3s.4-.3.5-.5c.1-.2.2-.4.2-.6 0-.3-.1-.6-.3-.8-.2-.2-.4-.4-.7-.5l-.9-.3c-.3-.1-.6-.1-.8-.2-.5-.1-.9-.2-1.3-.4-.4-.1-.8-.3-1.1-.6s-.6-.5-.8-.9c-.2-.4-.3-.8-.3-1.4 0-.6.1-1.1.4-1.5.2-.4.6-.8 1-1.1.4-.3.9-.5 1.4-.6.5-.1 1-.2 1.6-.2.8 0 1.5.1 2.2.4s1.3.8 1.7 1.4l-1.7 1.6zm10.4-1h-3.1v6.1c0 .3.1.6.2.8.1.2.3.4.5.6.2.2.5.2.9.2.3 0 .5 0 .8-.1.3 0 .5-.1.7-.3v2c-.3.1-.6.2-1 .3-.4.1-.7.1-.9.1-.8 0-1.5-.1-1.9-.3-.5-.2-.8-.5-1-.9s-.3-.8-.4-1.2c0-.5-.1-.9-.1-1.4v-5.9h-2.5v-1.9h2.5V9.4h2.2v3.2h3.1v1.9zm6.6-5.3H508V7h13.2v2.2h-5.5V24h-2.3V9.2zm7.2 3.4h2.2v1.8c.1-.3.3-.6.6-.8.2-.2.5-.5.8-.6.3-.2.6-.3 1-.4.4-.1.7-.2 1.1-.2.4 0 .7 0 1 .1l-.1 2.3c-.2 0-.4-.1-.5-.1h-.5c-1.1 0-1.9.3-2.4.9-.6.6-.8 1.5-.8 2.8V24h-2.2V12.6zm8.6 1.4c.6-.6 1.3-1 2.1-1.3.8-.3 1.6-.4 2.4-.4.8 0 1.5.1 2.1.3.6.2 1.1.5 1.5.8.4.4.7.8.9 1.2.2.5.3.9.3 1.4v6.9c0 .3 0 .7.1 1h-1.9c0-.6-.1-1.2-.1-1.7-.5.7-1 1.3-1.7 1.6s-1.4.5-2.3.5c-.5 0-1-.1-1.5-.2s-.9-.4-1.3-.6c-.4-.3-.6-.6-.9-1.1s-.3-.9-.3-1.5c0-.7.2-1.4.5-1.8.3-.5.8-.9 1.3-1.2.6-.3 1.2-.5 2-.7.8-.1 1.6-.2 2.4-.2h1.6v-.5c0-.3-.1-.6-.2-.9s-.3-.5-.5-.8c-.2-.2-.5-.4-.8-.6-.3-.1-.7-.2-1.2-.2-.4 0-.8 0-1.1.1l-.9.3c-.3.1-.5.3-.7.4s-.4.3-.6.5l-1.2-1.3zm6.1 4.5c-.5 0-1 0-1.6.1l-1.5.3c-.4.2-.8.4-1.1.7-.3.3-.4.7-.4 1.1 0 .7.2 1.1.7 1.4.4.3 1 .4 1.8.4.6 0 1.1-.1 1.5-.3.4-.2.8-.5 1-.8.3-.3.4-.7.6-1.1.1-.4.2-.8.2-1.2v-.7h-1.2zm4.7-5.9h2.5l3.4 8.7 3.3-8.7h2.3L547.1 24h-2.4l-4.6-11.4zm14.7 6.5c0 .5.1.9.3 1.4s.5.8.9 1c.4.3.8.5 1.2.7.5.2.9.2 1.4.2.7 0 1.3-.2 1.8-.5s1-.7 1.4-1.2l1.6 1.2c-1.2 1.6-2.9 2.3-5 2.3-.9 0-1.7-.2-2.4-.5s-1.3-.7-1.8-1.3-.9-1.2-1.2-1.9c-.3-.7-.4-1.5-.4-2.4 0-.8.1-1.6.4-2.4.3-.7.7-1.4 1.2-1.9s1.1-1 1.9-1.3c.7-.3 1.5-.5 2.4-.5 1 0 1.9.2 2.6.5.7.4 1.3.8 1.7 1.4.4.6.8 1.2 1 1.9s.3 1.4.3 2.2v.8h-9.3zm6.8-1.7c0-.5-.1-.9-.2-1.3s-.3-.7-.6-1c-.3-.3-.6-.5-1-.7s-.9-.3-1.4-.3c-.5 0-1 .1-1.5.3s-.8.5-1.1.8c-.3.3-.5.7-.7 1.1-.2.4-.3.8-.3 1.2h6.8zm4.8-11.5h2.2V24h-2.2V5.9zm5.7 1.1h3.4l5.4 12.9h.1L586.4 7h3.4v17h-2.3V10l-5.7 14h-1.5l-5.7-14v14h-2.3V7zm20.5 11.3c0-.8.2-1.6.5-2.3.3-.7.7-1.4 1.3-1.9.5-.5 1.2-1 1.9-1.3.7-.3 1.5-.5 2.4-.5.8 0 1.6.2 2.4.5s1.4.7 1.9 1.3c.5.5 1 1.2 1.3 1.9.3.7.5 1.5.5 2.3 0 .8-.2 1.6-.5 2.3-.3.7-.7 1.4-1.3 1.9s-1.2 1-1.9 1.3c-.7.3-1.5.5-2.4.5-.8 0-1.6-.2-2.4-.5-.7-.3-1.4-.7-1.9-1.3s-1-1.2-1.3-1.9c-.4-.7-.5-1.5-.5-2.3zm2.3 0c0 .6.1 1.1.3 1.6.2.5.4.9.7 1.2s.7.6 1.2.8c.5.2 1 .3 1.6.3s1.1-.1 1.6-.3c.5-.2.9-.5 1.2-.8.3-.3.6-.8.7-1.2.2-.5.3-1 .3-1.6 0-.6-.1-1.1-.3-1.6-.2-.5-.4-.9-.7-1.2-.3-.3-.7-.6-1.2-.8-.5-.2-1-.3-1.6-.3s-1.1.1-1.6.3c-.5.2-.9.5-1.2.8-.3.3-.6.8-.7 1.2-.2.5-.3 1-.3 1.6zm12.2-5.7h2.2v1.8c.3-.6.7-1.1 1.4-1.5.7-.4 1.4-.6 2.3-.6.5 0 1.1.1 1.6.3s.9.4 1.3.8.7.8.9 1.4c.2.6.3 1.2.3 2V24H615v-6.7c0-.5-.1-1-.2-1.4-.1-.4-.3-.7-.6-.9-.2-.2-.5-.4-.8-.5-.3-.1-.6-.2-1-.2s-.9.1-1.2.2c-.4.1-.7.4-1 .7-.3.3-.5.7-.7 1.2-.2.5-.2 1-.2 1.7V24h-2.2V12.6zm14.7 6.5c0 .5.1.9.3 1.4s.5.8.9 1c.4.3.8.5 1.2.7.5.2.9.2 1.4.2.7 0 1.3-.2 1.8-.5s1-.7 1.4-1.2l1.6 1.2c-1.2 1.6-2.9 2.3-5 2.3-.9 0-1.7-.2-2.4-.5s-1.3-.7-1.8-1.3-.9-1.2-1.2-1.9c-.3-.7-.4-1.5-.4-2.4 0-.8.1-1.6.4-2.4.3-.7.7-1.4 1.2-1.9s1.1-1 1.9-1.3c.7-.3 1.5-.5 2.4-.5 1 0 1.9.2 2.6.5.7.4 1.3.8 1.7 1.4.4.6.8 1.2 1 1.9s.3 1.4.3 2.2v.8h-9.3zm6.8-1.7c0-.5-.1-.9-.2-1.3s-.3-.7-.6-1c-.3-.3-.6-.5-1-.7s-.9-.3-1.4-.3c-.5 0-1 .1-1.5.3s-.8.5-1.1.8c-.3.3-.5.7-.7 1.1-.2.4-.3.8-.3 1.2h6.8zm3.3-4.8h2.5l3.4 8.9 3.2-8.9h2.3l-5.4 13.8c-.2.5-.4.9-.6 1.4-.2.4-.5.8-.7 1-.3.3-.6.5-1 .7-.4.2-.9.2-1.5.2-.3 0-.6 0-1-.1-.3 0-.6-.1-.9-.3l.3-2c.4.2.9.3 1.3.3.3 0 .6 0 .8-.1.2-.1.4-.2.6-.4.2-.2.3-.4.4-.6.1-.2.2-.5.3-.8l.7-1.8-4.7-11.3zm13 11.5c-.4 0-.8-.2-1.1-.5-.3-.3-.5-.7-.5-1.1 0-.4.2-.8.5-1.1.3-.3.7-.5 1.1-.5s.8.2 1.1.5c.3.3.5.7.5 1.1 0 .4-.2.8-.5 1.1-.3.4-.7.5-1.1.5zm12.8-8.5c-.4-.4-.8-.7-1.3-.9s-1-.3-1.6-.3c-.6 0-1.1.1-1.5.3s-.8.5-1.1.9c-.3.4-.5.8-.7 1.3-.2.5-.2 1-.2 1.5s.1 1 .3 1.5c.2.5.4.9.7 1.2.3.4.7.6 1.2.8.4.2 1 .3 1.5.3.6 0 1.1-.1 1.6-.3.4-.2.8-.5 1.2-.9l1.5 1.5c-.6.6-1.2 1.1-2 1.3-.7.3-1.5.4-2.4.4-.9 0-1.7-.1-2.4-.4-.7-.3-1.4-.7-1.9-1.2s-.9-1.1-1.2-1.9c-.3-.7-.4-1.5-.4-2.4s.1-1.7.4-2.4c.3-.7.7-1.4 1.2-1.9s1.1-.9 1.9-1.2c.7-.3 1.5-.4 2.4-.4.8 0 1.6.1 2.4.4s1.4.7 2 1.4l-1.6 1.4zm2.6 2.7c0-.8.2-1.6.5-2.3.3-.7.7-1.4 1.3-1.9.5-.5 1.2-1 1.9-1.3.7-.3 1.5-.5 2.4-.5.8 0 1.6.2 2.4.5s1.4.7 1.9 1.3c.5.5 1 1.2 1.3 1.9.3.7.5 1.5.5 2.3 0 .8-.2 1.6-.5 2.3-.3.7-.7 1.4-1.3 1.9s-1.2 1-1.9 1.3c-.7.3-1.5.5-2.4.5-.8 0-1.6-.2-2.4-.5-.7-.3-1.4-.7-1.9-1.3s-1-1.2-1.3-1.9c-.4-.7-.5-1.5-.5-2.3zm2.3 0c0 .6.1 1.1.3 1.6.2.5.4.9.7 1.2s.7.6 1.2.8c.5.2 1 .3 1.6.3s1.1-.1 1.6-.3c.5-.2.9-.5 1.2-.8.3-.3.6-.8.7-1.2.2-.5.3-1 .3-1.6 0-.6-.1-1.1-.3-1.6-.2-.5-.4-.9-.7-1.2-.3-.3-.7-.6-1.2-.8-.5-.2-1-.3-1.6-.3s-1.1.1-1.6.3c-.5.2-.9.5-1.2.8-.3.3-.6.8-.7 1.2-.2.5-.3 1-.3 1.6zm13.9 5.8c-.4 0-.8-.2-1.1-.5-.3-.3-.5-.7-.5-1.1 0-.4.2-.8.5-1.1.3-.3.7-.5 1.1-.5s.8.2 1.1.5c.3.3.5.7.5 1.1 0 .4-.2.8-.5 1.1-.3.4-.7.5-1.1.5zm14.8-.1h-2.2v-1.8c-.3.6-.7 1.1-1.4 1.5-.7.4-1.4.6-2.3.6-.6 0-1.1-.1-1.6-.3s-.9-.4-1.3-.8-.7-.8-.9-1.4c-.2-.6-.3-1.2-.3-2v-7.3h2.2v6.7c0 .5.1 1 .2 1.4.1.4.3.7.6.9.2.2.5.4.8.5.3.1.6.2 1 .2s.9-.1 1.2-.2c.4-.1.7-.4 1-.7.3-.3.5-.7.7-1.2.2-.5.2-1 .2-1.7v-5.9h2.2V24zm2.9-18.1h2.2v11.7l4.9-4.9h3l-5.3 5.2 5.8 6.2h-3.1l-5.3-5.9V24h-2.2V5.9z" transform="translate(-20 1080)" class="st0" id="Footer"/></g></g></svg>