<?xml version="1.0" encoding="utf-8"?>
<!-- Generator: Adobe Illustrator 21.0.2, SVG Export Plug-In . SVG Version: 6.00 Build 0)  -->
<svg version="1.1" id="Layer_1" xmlns="http://www.w3.org/2000/svg" xmlns:xlink="http://www.w3.org/1999/xlink" x="0px" y="0px"
	 viewBox="0 0 241 25" style="enable-background:new 0 0 241 25;" xml:space="preserve">
<style type="text/css">
	.st0{enable-background:new    ;}
</style>
<title>JustTravelMoney.co.u</title>
<desc>Created with Sketch.</desc>
<g id="Page-1">
	<g id="Blog-Post" transform="translate(-444.000000, -1085.000000)">
		<g id="Footer" transform="translate(-20.000000, 1080.000000)">
			<g class="st0">
				<path d="M472,7h2.3v12.1c0,1.1-0.2,1.9-0.5,2.6s-0.8,1.2-1.3,1.6c-0.5,0.4-1,0.7-1.6,0.8c-0.6,0.2-1.1,0.2-1.6,0.2
					c-1.2,0-2.2-0.3-3-0.9c-0.8-0.6-1.3-1.5-1.6-2.8l2.3-0.5c0.1,0.6,0.4,1.1,0.8,1.5c0.4,0.4,0.9,0.6,1.6,0.6c0.6,0,1-0.1,1.4-0.3
					c0.3-0.2,0.6-0.5,0.8-0.9c0.2-0.4,0.3-0.8,0.4-1.2c0.1-0.5,0.1-0.9,0.1-1.4V7z"/>
				<path d="M487.5,24h-2.2v-1.8h0c-0.3,0.6-0.7,1.1-1.4,1.5c-0.7,0.4-1.4,0.6-2.3,0.6c-0.6,0-1.1-0.1-1.6-0.3s-0.9-0.4-1.3-0.8
					c-0.4-0.4-0.7-0.8-0.9-1.4c-0.2-0.6-0.3-1.2-0.3-2v-7.3h2.2v6.7c0,0.5,0.1,1,0.2,1.4c0.1,0.4,0.3,0.7,0.6,0.9
					c0.2,0.2,0.5,0.4,0.8,0.5c0.3,0.1,0.6,0.2,1,0.2c0.4,0,0.9-0.1,1.2-0.2c0.4-0.1,0.7-0.4,1-0.7c0.3-0.3,0.5-0.7,0.7-1.2
					c0.2-0.5,0.2-1,0.2-1.7v-5.9h2.2V24z"/>
				<path d="M496.5,15.5c-0.3-0.3-0.6-0.6-0.9-0.8c-0.4-0.2-0.8-0.3-1.4-0.3c-0.5,0-1,0.1-1.3,0.3s-0.6,0.5-0.6,0.9
					c0,0.3,0.1,0.6,0.3,0.8s0.5,0.4,0.8,0.5s0.6,0.2,0.9,0.3c0.3,0.1,0.6,0.1,0.9,0.2c0.5,0.1,0.9,0.2,1.3,0.4
					c0.4,0.2,0.8,0.4,1.1,0.6c0.3,0.3,0.5,0.6,0.7,0.9s0.3,0.8,0.3,1.3c0,0.6-0.1,1.2-0.4,1.6c-0.3,0.5-0.6,0.8-1.1,1.1
					s-0.9,0.5-1.5,0.6c-0.6,0.1-1.1,0.2-1.7,0.2c-0.9,0-1.8-0.1-2.5-0.4c-0.7-0.3-1.3-0.8-1.9-1.6l1.6-1.3c0.4,0.4,0.7,0.7,1.2,0.9
					c0.4,0.3,1,0.4,1.6,0.4c0.3,0,0.5,0,0.8-0.1c0.3-0.1,0.5-0.1,0.7-0.3s0.4-0.3,0.5-0.5c0.1-0.2,0.2-0.4,0.2-0.6
					c0-0.3-0.1-0.6-0.3-0.8c-0.2-0.2-0.4-0.4-0.7-0.5c-0.3-0.1-0.6-0.2-0.9-0.3c-0.3-0.1-0.6-0.1-0.8-0.2c-0.5-0.1-0.9-0.2-1.3-0.4
					c-0.4-0.1-0.8-0.3-1.1-0.6s-0.6-0.5-0.8-0.9c-0.2-0.4-0.3-0.8-0.3-1.4c0-0.6,0.1-1.1,0.4-1.5c0.2-0.4,0.6-0.8,1-1.1
					c0.4-0.3,0.9-0.5,1.4-0.6c0.5-0.1,1-0.2,1.6-0.2c0.8,0,1.5,0.1,2.2,0.4s1.3,0.8,1.7,1.4L496.5,15.5z"/>
				<path d="M506.9,14.5h-3.1v5.2c0,0.3,0,0.6,0,0.9c0,0.3,0.1,0.6,0.2,0.8c0.1,0.2,0.3,0.4,0.5,0.6c0.2,0.2,0.5,0.2,0.9,0.2
					c0.3,0,0.5,0,0.8-0.1c0.3,0,0.5-0.1,0.7-0.3v2c-0.3,0.1-0.6,0.2-1,0.3c-0.4,0.1-0.7,0.1-0.9,0.1c-0.8,0-1.5-0.1-1.9-0.3
					c-0.5-0.2-0.8-0.5-1-0.9s-0.3-0.8-0.4-1.2c0-0.5-0.1-0.9-0.1-1.4v-5.9h-2.5v-1.9h2.5V9.4h2.2v3.2h3.1V14.5z"/>
				<path d="M513.5,9.2H508V7h13.2v2.2h-5.5V24h-2.3V9.2z"/>
				<path d="M520.7,12.6h2.2v1.8h0c0.1-0.3,0.3-0.6,0.6-0.8c0.2-0.2,0.5-0.5,0.8-0.6c0.3-0.2,0.6-0.3,1-0.4c0.4-0.1,0.7-0.2,1.1-0.2
					c0.4,0,0.7,0,1,0.1l-0.1,2.3c-0.2,0-0.4-0.1-0.5-0.1s-0.4,0-0.5,0c-1.1,0-1.9,0.3-2.4,0.9c-0.6,0.6-0.8,1.5-0.8,2.8V24h-2.2
					V12.6z"/>
				<path d="M529.3,14c0.6-0.6,1.3-1,2.1-1.3c0.8-0.3,1.6-0.4,2.4-0.4c0.8,0,1.5,0.1,2.1,0.3c0.6,0.2,1.1,0.5,1.5,0.8
					c0.4,0.4,0.7,0.8,0.9,1.2c0.2,0.5,0.3,0.9,0.3,1.4v5.8c0,0.4,0,0.8,0,1.1s0,0.7,0.1,1h-1.9c0-0.6-0.1-1.2-0.1-1.7h0
					c-0.5,0.7-1,1.3-1.7,1.6s-1.4,0.5-2.3,0.5c-0.5,0-1-0.1-1.5-0.2c-0.5-0.1-0.9-0.4-1.3-0.6c-0.4-0.3-0.6-0.6-0.9-1.1
					s-0.3-0.9-0.3-1.5c0-0.7,0.2-1.4,0.5-1.8c0.3-0.5,0.8-0.9,1.3-1.2c0.6-0.3,1.2-0.5,2-0.7c0.8-0.1,1.6-0.2,2.4-0.2h1.6v-0.5
					c0-0.3-0.1-0.6-0.2-0.9s-0.3-0.5-0.5-0.8c-0.2-0.2-0.5-0.4-0.8-0.6c-0.3-0.1-0.7-0.2-1.2-0.2c-0.4,0-0.8,0-1.1,0.1
					c-0.3,0.1-0.6,0.2-0.9,0.3c-0.3,0.1-0.5,0.3-0.7,0.4s-0.4,0.3-0.6,0.5L529.3,14z M535.4,18.5c-0.5,0-1,0-1.6,0.1
					c-0.5,0.1-1,0.2-1.5,0.3c-0.4,0.2-0.8,0.4-1.1,0.7c-0.3,0.3-0.4,0.7-0.4,1.1c0,0.7,0.2,1.1,0.7,1.4c0.4,0.3,1,0.4,1.8,0.4
					c0.6,0,1.1-0.1,1.5-0.3c0.4-0.2,0.8-0.5,1-0.8c0.3-0.3,0.4-0.7,0.6-1.1c0.1-0.4,0.2-0.8,0.2-1.2v-0.7H535.4z"/>
				<path d="M540.1,12.6h2.5l3.4,8.7l3.3-8.7h2.3L547.1,24h-2.4L540.1,12.6z"/>
				<path d="M554.8,19.1c0,0.5,0.1,0.9,0.3,1.4s0.5,0.8,0.9,1c0.4,0.3,0.8,0.5,1.2,0.7c0.5,0.2,0.9,0.2,1.4,0.2
					c0.7,0,1.3-0.2,1.8-0.5c0.5-0.3,1-0.7,1.4-1.2l1.6,1.2c-1.2,1.6-2.9,2.3-5,2.3c-0.9,0-1.7-0.2-2.4-0.5c-0.7-0.3-1.3-0.7-1.8-1.3
					s-0.9-1.2-1.2-1.9c-0.3-0.7-0.4-1.5-0.4-2.4c0-0.8,0.1-1.6,0.4-2.4c0.3-0.7,0.7-1.4,1.2-1.9c0.5-0.5,1.1-1,1.9-1.3
					c0.7-0.3,1.5-0.5,2.4-0.5c1,0,1.9,0.2,2.6,0.5c0.7,0.4,1.3,0.8,1.7,1.4c0.4,0.6,0.8,1.2,1,1.9s0.3,1.4,0.3,2.2v0.8H554.8z
					 M561.6,17.4c0-0.5-0.1-0.9-0.2-1.3c-0.1-0.4-0.3-0.7-0.6-1c-0.3-0.3-0.6-0.5-1-0.7s-0.9-0.3-1.4-0.3c-0.5,0-1,0.1-1.5,0.3
					s-0.8,0.5-1.1,0.8c-0.3,0.3-0.5,0.7-0.7,1.1c-0.2,0.4-0.3,0.8-0.3,1.2H561.6z"/>
				<path d="M566.4,5.9h2.2V24h-2.2V5.9z"/>
				<path d="M572.1,7h3.4l5.4,12.9h0.1L586.4,7h3.4v17h-2.3V10h0l-5.7,14h-1.5l-5.7-14h0v14h-2.3V7z"/>
				<path d="M592.6,18.3c0-0.8,0.2-1.6,0.5-2.3c0.3-0.7,0.7-1.4,1.3-1.9c0.5-0.5,1.2-1,1.9-1.3c0.7-0.3,1.5-0.5,2.4-0.5
					c0.8,0,1.6,0.2,2.4,0.5s1.4,0.7,1.9,1.3c0.5,0.5,1,1.2,1.3,1.9c0.3,0.7,0.5,1.5,0.5,2.3c0,0.8-0.2,1.6-0.5,2.3
					c-0.3,0.7-0.7,1.4-1.3,1.9s-1.2,1-1.9,1.3c-0.7,0.3-1.5,0.5-2.4,0.5c-0.8,0-1.6-0.2-2.4-0.5c-0.7-0.3-1.4-0.7-1.9-1.3
					s-1-1.2-1.3-1.9C592.7,19.9,592.6,19.1,592.6,18.3z M594.9,18.3c0,0.6,0.1,1.1,0.3,1.6c0.2,0.5,0.4,0.9,0.7,1.2s0.7,0.6,1.2,0.8
					c0.5,0.2,1,0.3,1.6,0.3s1.1-0.1,1.6-0.3c0.5-0.2,0.9-0.5,1.2-0.8c0.3-0.3,0.6-0.8,0.7-1.2c0.2-0.5,0.3-1,0.3-1.6
					c0-0.6-0.1-1.1-0.3-1.6c-0.2-0.5-0.4-0.9-0.7-1.2c-0.3-0.3-0.7-0.6-1.2-0.8c-0.5-0.2-1-0.3-1.6-0.3s-1.1,0.1-1.6,0.3
					c-0.5,0.2-0.9,0.5-1.2,0.8c-0.3,0.3-0.6,0.8-0.7,1.2C595,17.2,594.9,17.7,594.9,18.3z"/>
				<path d="M607.1,12.6h2.2v1.8h0c0.3-0.6,0.7-1.1,1.4-1.5c0.7-0.4,1.4-0.6,2.3-0.6c0.5,0,1.1,0.1,1.6,0.3s0.9,0.4,1.3,0.8
					s0.7,0.8,0.9,1.4c0.2,0.6,0.3,1.2,0.3,2V24H615v-6.7c0-0.5-0.1-1-0.2-1.4c-0.1-0.4-0.3-0.7-0.6-0.9c-0.2-0.2-0.5-0.4-0.8-0.5
					c-0.3-0.1-0.6-0.2-1-0.2c-0.4,0-0.9,0.1-1.2,0.2c-0.4,0.1-0.7,0.4-1,0.7c-0.3,0.3-0.5,0.7-0.7,1.2c-0.2,0.5-0.2,1-0.2,1.7V24
					h-2.2V12.6z"/>
				<path d="M621.8,19.1c0,0.5,0.1,0.9,0.3,1.4s0.5,0.8,0.9,1c0.4,0.3,0.8,0.5,1.2,0.7c0.5,0.2,0.9,0.2,1.4,0.2
					c0.7,0,1.3-0.2,1.8-0.5c0.5-0.3,1-0.7,1.4-1.2l1.6,1.2c-1.2,1.6-2.9,2.3-5,2.3c-0.9,0-1.7-0.2-2.4-0.5c-0.7-0.3-1.3-0.7-1.8-1.3
					s-0.9-1.2-1.2-1.9c-0.3-0.7-0.4-1.5-0.4-2.4c0-0.8,0.1-1.6,0.4-2.4c0.3-0.7,0.7-1.4,1.2-1.9c0.5-0.5,1.1-1,1.9-1.3
					c0.7-0.3,1.5-0.5,2.4-0.5c1,0,1.9,0.2,2.6,0.5c0.7,0.4,1.3,0.8,1.7,1.4c0.4,0.6,0.8,1.2,1,1.9s0.3,1.4,0.3,2.2v0.8H621.8z
					 M628.6,17.4c0-0.5-0.1-0.9-0.2-1.3c-0.1-0.4-0.3-0.7-0.6-1c-0.3-0.3-0.6-0.5-1-0.7s-0.9-0.3-1.4-0.3c-0.5,0-1,0.1-1.5,0.3
					s-0.8,0.5-1.1,0.8c-0.3,0.3-0.5,0.7-0.7,1.1c-0.2,0.4-0.3,0.8-0.3,1.2H628.6z"/>
				<path d="M631.9,12.6h2.5l3.4,8.9h0l3.2-8.9h2.3l-5.4,13.8c-0.2,0.5-0.4,0.9-0.6,1.4c-0.2,0.4-0.5,0.8-0.7,1
					c-0.3,0.3-0.6,0.5-1,0.7c-0.4,0.2-0.9,0.2-1.5,0.2c-0.3,0-0.6,0-1-0.1c-0.3,0-0.6-0.1-0.9-0.3l0.3-2c0.4,0.2,0.9,0.3,1.3,0.3
					c0.3,0,0.6,0,0.8-0.1c0.2-0.1,0.4-0.2,0.6-0.4c0.2-0.2,0.3-0.4,0.4-0.6c0.1-0.2,0.2-0.5,0.3-0.8l0.7-1.8L631.9,12.6z"/>
				<path d="M644.9,24.1c-0.4,0-0.8-0.2-1.1-0.5c-0.3-0.3-0.5-0.7-0.5-1.1c0-0.4,0.2-0.8,0.5-1.1c0.3-0.3,0.7-0.5,1.1-0.5
					s0.8,0.2,1.1,0.5c0.3,0.3,0.5,0.7,0.5,1.1c0,0.4-0.2,0.8-0.5,1.1C645.7,24,645.3,24.1,644.9,24.1z"/>
				<path d="M657.7,15.6c-0.4-0.4-0.8-0.7-1.3-0.9s-1-0.3-1.6-0.3c-0.6,0-1.1,0.1-1.5,0.3s-0.8,0.5-1.1,0.9
					c-0.3,0.4-0.5,0.8-0.7,1.3c-0.2,0.5-0.2,1-0.2,1.5c0,0.5,0.1,1,0.3,1.5c0.2,0.5,0.4,0.9,0.7,1.2c0.3,0.4,0.7,0.6,1.2,0.8
					c0.4,0.2,1,0.3,1.5,0.3c0.6,0,1.1-0.1,1.6-0.3c0.4-0.2,0.8-0.5,1.2-0.9l1.5,1.5c-0.6,0.6-1.2,1.1-2,1.3
					c-0.7,0.3-1.5,0.4-2.4,0.4c-0.9,0-1.7-0.1-2.4-0.4c-0.7-0.3-1.4-0.7-1.9-1.2c-0.5-0.5-0.9-1.1-1.2-1.9c-0.3-0.7-0.4-1.5-0.4-2.4
					s0.1-1.7,0.4-2.4c0.3-0.7,0.7-1.4,1.2-1.9c0.5-0.5,1.1-0.9,1.9-1.2c0.7-0.3,1.5-0.4,2.4-0.4c0.8,0,1.6,0.1,2.4,0.4
					s1.4,0.7,2,1.4L657.7,15.6z"/>
				<path d="M660.3,18.3c0-0.8,0.2-1.6,0.5-2.3c0.3-0.7,0.7-1.4,1.3-1.9c0.5-0.5,1.2-1,1.9-1.3c0.7-0.3,1.5-0.5,2.4-0.5
					c0.8,0,1.6,0.2,2.4,0.5s1.4,0.7,1.9,1.3c0.5,0.5,1,1.2,1.3,1.9c0.3,0.7,0.5,1.5,0.5,2.3c0,0.8-0.2,1.6-0.5,2.3
					c-0.3,0.7-0.7,1.4-1.3,1.9s-1.2,1-1.9,1.3c-0.7,0.3-1.5,0.5-2.4,0.5c-0.8,0-1.6-0.2-2.4-0.5c-0.7-0.3-1.4-0.7-1.9-1.3
					s-1-1.2-1.3-1.9C660.4,19.9,660.3,19.1,660.3,18.3z M662.6,18.3c0,0.6,0.1,1.1,0.3,1.6c0.2,0.5,0.4,0.9,0.7,1.2s0.7,0.6,1.2,0.8
					c0.5,0.2,1,0.3,1.6,0.3s1.1-0.1,1.6-0.3c0.5-0.2,0.9-0.5,1.2-0.8c0.3-0.3,0.6-0.8,0.7-1.2c0.2-0.5,0.3-1,0.3-1.6
					c0-0.6-0.1-1.1-0.3-1.6c-0.2-0.5-0.4-0.9-0.7-1.2c-0.3-0.3-0.7-0.6-1.2-0.8c-0.5-0.2-1-0.3-1.6-0.3s-1.1,0.1-1.6,0.3
					c-0.5,0.2-0.9,0.5-1.2,0.8c-0.3,0.3-0.6,0.8-0.7,1.2C662.7,17.2,662.6,17.7,662.6,18.3z"/>
				<path d="M676.5,24.1c-0.4,0-0.8-0.2-1.1-0.5c-0.3-0.3-0.5-0.7-0.5-1.1c0-0.4,0.2-0.8,0.5-1.1c0.3-0.3,0.7-0.5,1.1-0.5
					s0.8,0.2,1.1,0.5c0.3,0.3,0.5,0.7,0.5,1.1c0,0.4-0.2,0.8-0.5,1.1C677.3,24,676.9,24.1,676.5,24.1z"/>
				<path d="M691.3,24h-2.2v-1.8h0c-0.3,0.6-0.7,1.1-1.4,1.5c-0.7,0.4-1.4,0.6-2.3,0.6c-0.6,0-1.1-0.1-1.6-0.3s-0.9-0.4-1.3-0.8
					c-0.4-0.4-0.7-0.8-0.9-1.4c-0.2-0.6-0.3-1.2-0.3-2v-7.3h2.2v6.7c0,0.5,0.1,1,0.2,1.4c0.1,0.4,0.3,0.7,0.6,0.9
					c0.2,0.2,0.5,0.4,0.8,0.5c0.3,0.1,0.6,0.2,1,0.2c0.4,0,0.9-0.1,1.2-0.2c0.4-0.1,0.7-0.4,1-0.7c0.3-0.3,0.5-0.7,0.7-1.2
					c0.2-0.5,0.2-1,0.2-1.7v-5.9h2.2V24z"/>
				<path d="M694.2,5.9h2.2v11.7l4.9-4.9h3l-5.3,5.2l5.8,6.2h-3.1l-5.3-5.9V24h-2.2V5.9z"/>
			</g>
		</g>
	</g>
</g>
</svg>
